STARTFONT 2.1
FONT -FontForge-Goethe-Medium-R-Normal--20-140-100-100-P-84-ISO10646-1
SIZE 14 100 100
FONTBOUNDINGBOX 36 21 -10 -6
COMMENT "Generated by fontforge, http://fontforge.sourceforge.net"
COMMENT "Created by Rebecca Bettencourt with FontForge 2.0 (http://fontforge.sf.net)"
STARTPROPERTIES 40
FOUNDRY "FontForge"
FAMILY_NAME "Goethe"
WEIGHT_NAME "Medium"
SLANT "R"
SETWIDTH_NAME "Normal"
ADD_STYLE_NAME ""
PIXEL_SIZE 20
POINT_SIZE 140
RESOLUTION_X 100
RESOLUTION_Y 100
SPACING "P"
AVERAGE_WIDTH 84
CHARSET_REGISTRY "ISO10646"
CHARSET_ENCODING "1"
FONTNAME_REGISTRY ""
CHARSET_COLLECTIONS "ISO8859-2 ISO8859-5 ISO8859-7 ISO8859-9 ISO8859-4 ISO10646-1"
FONT_NAME "Goethe"
FACE_NAME "Goethe"
COPYRIGHT "Created by Rebecca Bettencourt with FontForge 2.0 (http://fontforge.sf.net)"
FONT_VERSION "1.0"
FONT_ASCENT 14
FONT_DESCENT 6
UNDERLINE_POSITION -2
UNDERLINE_THICKNESS 1
X_HEIGHT 7
CAP_HEIGHT 10
RAW_ASCENT 700
RAW_DESCENT 300
NORM_SPACE 5
RELATIVE_WEIGHT 50
RELATIVE_SETWIDTH 50
SUPERSCRIPT_X 0
SUPERSCRIPT_Y 10
SUPERSCRIPT_SIZE 20
SUBSCRIPT_X 0
SUBSCRIPT_Y 10
SUBSCRIPT_SIZE 20
FIGURE_WIDTH 8
AVG_LOWERCASE_WIDTH 81
AVG_UPPERCASE_WIDTH 95
ENDPROPERTIES
CHARS 813
STARTCHAR space
ENCODING 32
SWIDTH 250 0
DWIDTH 5 0
BBX 1 1 0 0
BITMAP
00
ENDCHAR
STARTCHAR exclam
ENCODING 33
SWIDTH 100 0
DWIDTH 2 0
BBX 1 11 0 0
BITMAP
80
80
80
80
80
80
80
80
00
80
80
ENDCHAR
STARTCHAR quotedbl
ENCODING 34
SWIDTH 200 0
DWIDTH 4 0
BBX 3 3 0 9
BITMAP
A0
A0
A0
ENDCHAR
STARTCHAR numbersign
ENCODING 35
SWIDTH 450 0
DWIDTH 9 0
BBX 8 8 0 3
BITMAP
12
12
7F
24
24
FE
48
48
ENDCHAR
STARTCHAR dollar
ENCODING 36
SWIDTH 400 0
DWIDTH 8 0
BBX 7 15 0 -2
BITMAP
10
10
3A
56
92
90
50
38
14
12
92
D4
B8
10
10
ENDCHAR
STARTCHAR percent
ENCODING 37
SWIDTH 500 0
DWIDTH 10 0
BBX 9 11 0 0
BITMAP
6E00
9200
9400
9400
6800
0800
0B00
1480
1480
2480
2300
ENDCHAR
STARTCHAR ampersand
ENCODING 38
SWIDTH 500 0
DWIDTH 10 0
BBX 9 11 0 0
BITMAP
2000
5000
5000
5000
2000
5380
8900
8A00
8400
4A00
3100
ENDCHAR
STARTCHAR quotesingle
ENCODING 39
SWIDTH 100 0
DWIDTH 2 0
BBX 1 3 0 9
BITMAP
80
80
80
ENDCHAR
STARTCHAR parenleft
ENCODING 40
SWIDTH 200 0
DWIDTH 4 0
BBX 3 15 0 -3
BITMAP
20
40
40
40
80
80
80
80
80
80
80
40
40
40
20
ENDCHAR
STARTCHAR parenright
ENCODING 41
SWIDTH 200 0
DWIDTH 4 0
BBX 3 15 0 -3
BITMAP
80
40
40
40
20
20
20
20
20
20
20
40
40
40
80
ENDCHAR
STARTCHAR asterisk
ENCODING 42
SWIDTH 300 0
DWIDTH 6 0
BBX 5 5 0 7
BITMAP
20
A8
70
A8
20
ENDCHAR
STARTCHAR plus
ENCODING 43
SWIDTH 400 0
DWIDTH 8 0
BBX 7 7 0 1
BITMAP
10
10
10
FE
10
10
10
ENDCHAR
STARTCHAR comma
ENCODING 44
SWIDTH 150 0
DWIDTH 3 0
BBX 2 3 0 -1
BITMAP
40
40
80
ENDCHAR
STARTCHAR hyphen
ENCODING 45
SWIDTH 350 0
DWIDTH 7 0
BBX 6 1 0 4
BITMAP
FC
ENDCHAR
STARTCHAR period
ENCODING 46
SWIDTH 100 0
DWIDTH 2 0
BBX 1 2 0 0
BITMAP
80
80
ENDCHAR
STARTCHAR slash
ENCODING 47
SWIDTH 300 0
DWIDTH 6 0
BBX 5 15 0 -3
BITMAP
08
08
08
10
10
10
20
20
20
40
40
40
80
80
80
ENDCHAR
STARTCHAR zero
ENCODING 48
SWIDTH 400 0
DWIDTH 8 0
BBX 7 11 0 0
BITMAP
38
44
44
82
82
82
82
82
44
44
38
ENDCHAR
STARTCHAR one
ENCODING 49
SWIDTH 400 0
DWIDTH 8 0
BBX 3 11 2 0
BITMAP
40
C0
40
40
40
40
40
40
40
40
E0
ENDCHAR
STARTCHAR two
ENCODING 50
SWIDTH 400 0
DWIDTH 8 0
BBX 7 11 0 0
BITMAP
78
84
02
02
04
08
10
20
40
82
FE
ENDCHAR
STARTCHAR three
ENCODING 51
SWIDTH 400 0
DWIDTH 8 0
BBX 7 11 0 0
BITMAP
78
84
02
02
04
38
04
02
02
84
78
ENDCHAR
STARTCHAR four
ENCODING 52
SWIDTH 400 0
DWIDTH 8 0
BBX 7 11 0 0
BITMAP
28
28
28
48
48
88
FE
08
08
08
1C
ENDCHAR
STARTCHAR five
ENCODING 53
SWIDTH 400 0
DWIDTH 8 0
BBX 7 11 0 0
BITMAP
7E
40
80
80
F8
04
02
02
02
84
78
ENDCHAR
STARTCHAR six
ENCODING 54
SWIDTH 400 0
DWIDTH 8 0
BBX 7 11 0 0
BITMAP
1C
20
40
80
B8
C4
82
82
82
44
38
ENDCHAR
STARTCHAR seven
ENCODING 55
SWIDTH 400 0
DWIDTH 8 0
BBX 7 11 0 0
BITMAP
FE
82
04
04
08
08
08
10
10
10
10
ENDCHAR
STARTCHAR eight
ENCODING 56
SWIDTH 400 0
DWIDTH 8 0
BBX 7 11 0 0
BITMAP
38
44
82
82
44
38
44
82
82
44
38
ENDCHAR
STARTCHAR nine
ENCODING 57
SWIDTH 400 0
DWIDTH 8 0
BBX 7 11 0 0
BITMAP
38
44
82
82
82
46
3A
02
04
08
30
ENDCHAR
STARTCHAR colon
ENCODING 58
SWIDTH 100 0
DWIDTH 2 0
BBX 1 7 0 0
BITMAP
80
80
00
00
00
80
80
ENDCHAR
STARTCHAR semicolon
ENCODING 59
SWIDTH 150 0
DWIDTH 3 0
BBX 2 8 0 -1
BITMAP
40
40
00
00
00
40
40
80
ENDCHAR
STARTCHAR less
ENCODING 60
SWIDTH 250 0
DWIDTH 5 0
BBX 4 7 0 1
BITMAP
10
20
40
80
40
20
10
ENDCHAR
STARTCHAR equal
ENCODING 61
SWIDTH 350 0
DWIDTH 7 0
BBX 6 3 0 3
BITMAP
FC
00
FC
ENDCHAR
STARTCHAR greater
ENCODING 62
SWIDTH 250 0
DWIDTH 5 0
BBX 4 7 0 1
BITMAP
80
40
20
10
20
40
80
ENDCHAR
STARTCHAR question
ENCODING 63
SWIDTH 400 0
DWIDTH 8 0
BBX 7 11 0 0
BITMAP
38
44
82
02
04
08
10
10
00
10
10
ENDCHAR
STARTCHAR at
ENCODING 64
SWIDTH 550 0
DWIDTH 11 0
BBX 10 10 0 0
BITMAP
1E00
6180
4080
8E40
9240
9240
8D80
4000
6000
1C00
ENDCHAR
STARTCHAR A
ENCODING 65
SWIDTH 500 0
DWIDTH 10 0
BBX 9 11 0 0
BITMAP
1800
0800
1400
1400
1400
2200
3E00
2200
4100
4100
E380
ENDCHAR
STARTCHAR B
ENCODING 66
SWIDTH 450 0
DWIDTH 9 0
BBX 8 11 0 0
BITMAP
FC
42
41
41
42
7C
42
41
41
42
FC
ENDCHAR
STARTCHAR C
ENCODING 67
SWIDTH 450 0
DWIDTH 9 0
BBX 8 11 0 0
BITMAP
1D
63
41
80
80
80
80
80
41
63
1C
ENDCHAR
STARTCHAR D
ENCODING 68
SWIDTH 450 0
DWIDTH 9 0
BBX 8 11 0 0
BITMAP
F8
46
42
41
41
41
41
41
42
46
F8
ENDCHAR
STARTCHAR E
ENCODING 69
SWIDTH 450 0
DWIDTH 9 0
BBX 8 11 0 0
BITMAP
FF
41
40
40
44
7C
44
40
40
41
FF
ENDCHAR
STARTCHAR F
ENCODING 70
SWIDTH 450 0
DWIDTH 9 0
BBX 8 11 0 0
BITMAP
FF
41
40
40
44
7C
44
40
40
40
E0
ENDCHAR
STARTCHAR G
ENCODING 71
SWIDTH 450 0
DWIDTH 9 0
BBX 8 11 0 0
BITMAP
1D
63
41
80
80
87
81
81
41
63
1D
ENDCHAR
STARTCHAR H
ENCODING 72
SWIDTH 500 0
DWIDTH 10 0
BBX 9 11 0 0
BITMAP
E380
4100
4100
4100
4100
7F00
4100
4100
4100
4100
E380
ENDCHAR
STARTCHAR I
ENCODING 73
SWIDTH 200 0
DWIDTH 4 0
BBX 3 11 0 0
BITMAP
E0
40
40
40
40
40
40
40
40
40
E0
ENDCHAR
STARTCHAR J
ENCODING 74
SWIDTH 450 0
DWIDTH 9 0
BBX 8 11 0 0
BITMAP
07
02
02
02
02
02
02
02
84
CC
30
ENDCHAR
STARTCHAR K
ENCODING 75
SWIDTH 450 0
DWIDTH 9 0
BBX 8 11 0 0
BITMAP
E7
42
44
48
50
68
44
44
42
42
E7
ENDCHAR
STARTCHAR L
ENCODING 76
SWIDTH 450 0
DWIDTH 9 0
BBX 8 11 0 0
BITMAP
E0
40
40
40
40
40
40
40
40
41
FF
ENDCHAR
STARTCHAR M
ENCODING 77
SWIDTH 600 0
DWIDTH 12 0
BBX 11 11 0 0
BITMAP
C060
60C0
5140
4A40
4440
4440
4040
4040
4040
4040
E0E0
ENDCHAR
STARTCHAR N
ENCODING 78
SWIDTH 500 0
DWIDTH 10 0
BBX 9 11 0 0
BITMAP
C380
6100
6100
5100
5100
4900
4900
4500
4500
4300
E100
ENDCHAR
STARTCHAR O
ENCODING 79
SWIDTH 500 0
DWIDTH 10 0
BBX 9 11 0 0
BITMAP
1C00
6300
4100
8080
8080
8080
8080
8080
4100
6300
1C00
ENDCHAR
STARTCHAR P
ENCODING 80
SWIDTH 450 0
DWIDTH 9 0
BBX 8 11 0 0
BITMAP
FC
42
41
41
42
7C
40
40
40
40
E0
ENDCHAR
STARTCHAR Q
ENCODING 81
SWIDTH 500 0
DWIDTH 10 0
BBX 9 13 0 -2
BITMAP
1C00
6300
4100
8080
8080
8080
8080
8080
4100
6300
1C00
2200
0180
ENDCHAR
STARTCHAR R
ENCODING 82
SWIDTH 450 0
DWIDTH 9 0
BBX 8 11 0 0
BITMAP
FC
42
41
41
42
7C
48
44
42
42
E1
ENDCHAR
STARTCHAR S
ENCODING 83
SWIDTH 400 0
DWIDTH 8 0
BBX 7 11 0 0
BITMAP
3A
46
82
80
40
38
04
02
82
C4
B8
ENDCHAR
STARTCHAR T
ENCODING 84
SWIDTH 400 0
DWIDTH 8 0
BBX 7 11 0 0
BITMAP
FE
92
10
10
10
10
10
10
10
10
38
ENDCHAR
STARTCHAR U
ENCODING 85
SWIDTH 550 0
DWIDTH 11 0
BBX 10 11 0 0
BITMAP
E1C0
4080
4080
4080
4080
4080
4080
4080
2100
3300
0C00
ENDCHAR
STARTCHAR V
ENCODING 86
SWIDTH 500 0
DWIDTH 10 0
BBX 9 11 0 0
BITMAP
E380
4100
4100
2200
2200
2200
1400
1400
1400
0800
0800
ENDCHAR
STARTCHAR W
ENCODING 87
SWIDTH 700 0
DWIDTH 14 0
BBX 13 11 0 0
BITMAP
E038
4010
4010
2220
2220
2220
1540
1540
1540
0880
0880
ENDCHAR
STARTCHAR X
ENCODING 88
SWIDTH 500 0
DWIDTH 10 0
BBX 9 11 0 0
BITMAP
E380
4100
2200
2200
1400
0800
1400
2200
2200
4100
E380
ENDCHAR
STARTCHAR Y
ENCODING 89
SWIDTH 500 0
DWIDTH 10 0
BBX 9 11 0 0
BITMAP
E380
4100
2200
2200
1400
0800
0800
0800
0800
0800
1C00
ENDCHAR
STARTCHAR Z
ENCODING 90
SWIDTH 400 0
DWIDTH 8 0
BBX 7 11 0 0
BITMAP
FE
82
04
08
08
10
20
20
40
82
FE
ENDCHAR
STARTCHAR bracketleft
ENCODING 91
SWIDTH 200 0
DWIDTH 4 0
BBX 3 15 0 -3
BITMAP
E0
80
80
80
80
80
80
80
80
80
80
80
80
80
E0
ENDCHAR
STARTCHAR backslash
ENCODING 92
SWIDTH 300 0
DWIDTH 6 0
BBX 5 15 0 -3
BITMAP
80
80
80
40
40
40
20
20
20
10
10
10
08
08
08
ENDCHAR
STARTCHAR bracketright
ENCODING 93
SWIDTH 200 0
DWIDTH 4 0
BBX 3 15 0 -3
BITMAP
E0
20
20
20
20
20
20
20
20
20
20
20
20
20
E0
ENDCHAR
STARTCHAR asciicircum
ENCODING 94
SWIDTH 300 0
DWIDTH 6 0
BBX 5 3 0 9
BITMAP
20
50
88
ENDCHAR
STARTCHAR underscore
ENCODING 95
SWIDTH 400 0
DWIDTH 8 0
BBX 7 1 0 -1
BITMAP
FE
ENDCHAR
STARTCHAR grave
ENCODING 96
SWIDTH 200 0
DWIDTH 4 0
BBX 3 3 0 9
BITMAP
80
40
20
ENDCHAR
STARTCHAR a
ENCODING 97
SWIDTH 400 0
DWIDTH 8 0
BBX 7 8 0 0
BITMAP
38
44
04
3C
44
84
8C
76
ENDCHAR
STARTCHAR b
ENCODING 98
SWIDTH 450 0
DWIDTH 9 0
BBX 8 12 0 0
BITMAP
C0
40
40
40
5C
62
41
41
41
41
62
DC
ENDCHAR
STARTCHAR c
ENCODING 99
SWIDTH 400 0
DWIDTH 8 0
BBX 7 8 0 0
BITMAP
3A
46
82
80
80
82
44
38
ENDCHAR
STARTCHAR d
ENCODING 100
SWIDTH 450 0
DWIDTH 9 0
BBX 8 12 0 0
BITMAP
06
02
02
02
3A
46
82
82
82
82
46
3B
ENDCHAR
STARTCHAR e
ENCODING 101
SWIDTH 400 0
DWIDTH 8 0
BBX 7 8 0 0
BITMAP
38
44
82
FE
80
80
44
38
ENDCHAR
STARTCHAR f
ENCODING 102
SWIDTH 200 0
DWIDTH 4 0
BBX 5 12 0 0
BITMAP
18
20
40
40
E0
40
40
40
40
40
40
E0
ENDCHAR
STARTCHAR g
ENCODING 103
SWIDTH 450 0
DWIDTH 9 0
BBX 8 12 0 -4
BITMAP
3B
46
82
82
82
82
46
3A
02
02
04
38
ENDCHAR
STARTCHAR h
ENCODING 104
SWIDTH 450 0
DWIDTH 9 0
BBX 8 12 0 0
BITMAP
C0
40
40
40
58
64
42
42
42
42
42
E7
ENDCHAR
STARTCHAR i
ENCODING 105
SWIDTH 200 0
DWIDTH 4 0
BBX 3 12 0 0
BITMAP
40
40
00
00
C0
40
40
40
40
40
40
E0
ENDCHAR
STARTCHAR j
ENCODING 106
SWIDTH 150 0
DWIDTH 3 0
BBX 4 16 -2 -4
BITMAP
10
10
00
00
30
10
10
10
10
10
10
10
10
10
20
C0
ENDCHAR
STARTCHAR k
ENCODING 107
SWIDTH 450 0
DWIDTH 9 0
BBX 8 12 0 0
BITMAP
C0
40
40
40
4E
44
48
50
68
44
42
E7
ENDCHAR
STARTCHAR l
ENCODING 108
SWIDTH 200 0
DWIDTH 4 0
BBX 3 12 0 0
BITMAP
C0
40
40
40
40
40
40
40
40
40
40
E0
ENDCHAR
STARTCHAR m
ENCODING 109
SWIDTH 700 0
DWIDTH 14 0
BBX 13 8 0 0
BITMAP
D8C0
6520
4210
4210
4210
4210
4210
E738
ENDCHAR
STARTCHAR n
ENCODING 110
SWIDTH 450 0
DWIDTH 9 0
BBX 8 8 0 0
BITMAP
D8
64
42
42
42
42
42
E7
ENDCHAR
STARTCHAR o
ENCODING 111
SWIDTH 400 0
DWIDTH 8 0
BBX 7 8 0 0
BITMAP
38
44
82
82
82
82
44
38
ENDCHAR
STARTCHAR p
ENCODING 112
SWIDTH 450 0
DWIDTH 9 0
BBX 8 12 0 -4
BITMAP
DC
62
41
41
41
41
62
5C
40
40
40
E0
ENDCHAR
STARTCHAR q
ENCODING 113
SWIDTH 450 0
DWIDTH 9 0
BBX 8 12 0 -4
BITMAP
3B
46
82
82
82
82
46
3A
02
02
02
07
ENDCHAR
STARTCHAR r
ENCODING 114
SWIDTH 400 0
DWIDTH 8 0
BBX 7 8 0 0
BITMAP
DC
62
40
40
40
40
40
E0
ENDCHAR
STARTCHAR s
ENCODING 115
SWIDTH 350 0
DWIDTH 7 0
BBX 6 8 0 0
BITMAP
74
8C
84
60
18
84
C4
B8
ENDCHAR
STARTCHAR t
ENCODING 116
SWIDTH 200 0
DWIDTH 4 0
BBX 4 12 0 0
BITMAP
40
40
40
40
E0
40
40
40
40
40
40
30
ENDCHAR
STARTCHAR u
ENCODING 117
SWIDTH 450 0
DWIDTH 9 0
BBX 8 8 0 0
BITMAP
C6
42
42
42
42
42
26
1B
ENDCHAR
STARTCHAR v
ENCODING 118
SWIDTH 400 0
DWIDTH 8 0
BBX 7 8 0 0
BITMAP
EE
44
44
28
28
28
10
10
ENDCHAR
STARTCHAR w
ENCODING 119
SWIDTH 500 0
DWIDTH 10 0
BBX 9 8 0 0
BITMAP
E380
4100
4100
2A00
2A00
2A00
1400
1400
ENDCHAR
STARTCHAR x
ENCODING 120
SWIDTH 400 0
DWIDTH 8 0
BBX 7 8 0 0
BITMAP
EE
44
28
10
10
28
44
EE
ENDCHAR
STARTCHAR y
ENCODING 121
SWIDTH 400 0
DWIDTH 8 0
BBX 7 12 0 -4
BITMAP
EE
44
44
28
28
28
10
10
20
20
40
80
ENDCHAR
STARTCHAR z
ENCODING 122
SWIDTH 350 0
DWIDTH 7 0
BBX 6 8 0 0
BITMAP
FC
84
08
10
20
40
84
FC
ENDCHAR
STARTCHAR braceleft
ENCODING 123
SWIDTH 300 0
DWIDTH 6 0
BBX 5 15 0 -3
BITMAP
18
20
20
20
20
20
20
C0
20
20
20
20
20
20
18
ENDCHAR
STARTCHAR bar
ENCODING 124
SWIDTH 100 0
DWIDTH 2 0
BBX 1 15 0 -3
BITMAP
80
80
80
80
80
80
80
80
80
80
80
80
80
80
80
ENDCHAR
STARTCHAR braceright
ENCODING 125
SWIDTH 300 0
DWIDTH 6 0
BBX 5 15 0 -3
BITMAP
C0
20
20
20
20
20
20
18
20
20
20
20
20
20
C0
ENDCHAR
STARTCHAR asciitilde
ENCODING 126
SWIDTH 350 0
DWIDTH 7 0
BBX 6 2 0 10
BITMAP
64
98
ENDCHAR
STARTCHAR nonbreakingspace
ENCODING 160
SWIDTH 250 0
DWIDTH 5 0
BBX 1 1 0 0
BITMAP
00
ENDCHAR
STARTCHAR exclamdown
ENCODING 161
SWIDTH 100 0
DWIDTH 2 0
BBX 1 11 0 -3
BITMAP
80
80
00
80
80
80
80
80
80
80
80
ENDCHAR
STARTCHAR cent
ENCODING 162
SWIDTH 400 0
DWIDTH 8 0
BBX 7 12 0 -2
BITMAP
10
10
3A
56
92
90
90
92
54
38
10
10
ENDCHAR
STARTCHAR sterling
ENCODING 163
SWIDTH 400 0
DWIDTH 8 0
BBX 7 11 0 0
BITMAP
18
24
20
20
78
20
20
20
20
42
FE
ENDCHAR
STARTCHAR currency
ENCODING 164
SWIDTH 350 0
DWIDTH 7 0
BBX 6 6 0 2
BITMAP
B4
48
84
84
48
B4
ENDCHAR
STARTCHAR yen
ENCODING 165
SWIDTH 500 0
DWIDTH 10 0
BBX 9 11 0 0
BITMAP
E380
4100
2200
2200
1400
3E00
0800
3E00
0800
0800
1C00
ENDCHAR
STARTCHAR brokenbar
ENCODING 166
SWIDTH 100 0
DWIDTH 2 0
BBX 1 15 0 -3
BITMAP
80
80
80
80
80
80
00
00
00
80
80
80
80
80
80
ENDCHAR
STARTCHAR section
ENCODING 167
SWIDTH 350 0
DWIDTH 7 0
BBX 6 12 0 -1
BITMAP
30
48
40
30
48
84
84
48
30
08
48
30
ENDCHAR
STARTCHAR dieresis
ENCODING 168
SWIDTH 350 0
DWIDTH 7 0
BBX 6 1 0 11
BITMAP
CC
ENDCHAR
STARTCHAR copyright
ENCODING 169
SWIDTH 600 0
DWIDTH 12 0
BBX 11 11 0 0
BITMAP
0E00
3180
4040
4E40
9120
9020
9120
4E40
4040
3180
0E00
ENDCHAR
STARTCHAR ordfeminine
ENCODING 170
SWIDTH 350 0
DWIDTH 7 0
BBX 6 7 0 4
BITMAP
70
08
78
88
7C
00
78
ENDCHAR
STARTCHAR guillemotleft
ENCODING 171
SWIDTH 400 0
DWIDTH 8 0
BBX 7 7 0 1
BITMAP
12
24
48
90
48
24
12
ENDCHAR
STARTCHAR logicalnot
ENCODING 172
SWIDTH 400 0
DWIDTH 8 0
BBX 7 3 0 3
BITMAP
FE
02
02
ENDCHAR
STARTCHAR hyphen
ENCODING 173
SWIDTH 350 0
DWIDTH 7 0
BBX 6 1 0 4
BITMAP
FC
ENDCHAR
STARTCHAR registered
ENCODING 174
SWIDTH 600 0
DWIDTH 12 0
BBX 11 11 0 0
BITMAP
0E00
3180
4040
5E40
9120
9E20
9220
5140
4040
3180
0E00
ENDCHAR
STARTCHAR macron
ENCODING 175
SWIDTH 300 0
DWIDTH 6 0
BBX 5 1 0 11
BITMAP
F8
ENDCHAR
STARTCHAR degree
ENCODING 176
SWIDTH 300 0
DWIDTH 6 0
BBX 5 5 0 6
BITMAP
70
88
88
88
70
ENDCHAR
STARTCHAR plusminus
ENCODING 177
SWIDTH 400 0
DWIDTH 8 0
BBX 7 9 0 0
BITMAP
10
10
10
FE
10
10
10
00
FE
ENDCHAR
STARTCHAR twosuperior
ENCODING 178
SWIDTH 300 0
DWIDTH 6 0
BBX 5 6 0 6
BITMAP
70
88
10
20
40
F8
ENDCHAR
STARTCHAR threesuperior
ENCODING 179
SWIDTH 300 0
DWIDTH 6 0
BBX 5 6 0 6
BITMAP
70
88
30
08
88
70
ENDCHAR
STARTCHAR acute
ENCODING 180
SWIDTH 200 0
DWIDTH 4 0
BBX 3 3 0 9
BITMAP
20
40
80
ENDCHAR
STARTCHAR mu
ENCODING 181
SWIDTH 450 0
DWIDTH 9 0
BBX 8 12 0 -4
BITMAP
C6
42
42
42
42
42
66
5B
40
40
40
40
ENDCHAR
STARTCHAR paragraph
ENCODING 182
SWIDTH 500 0
DWIDTH 10 0
BBX 9 12 0 -1
BITMAP
3F80
7D00
FD00
FD00
FD00
7D00
3D00
0500
0500
0500
0500
0500
ENDCHAR
STARTCHAR periodcentered
ENCODING 183
SWIDTH 100 0
DWIDTH 2 0
BBX 1 2 0 5
BITMAP
80
80
ENDCHAR
STARTCHAR cedilla
ENCODING 184
SWIDTH 300 0
DWIDTH 6 0
BBX 3 4 1 -4
BITMAP
40
20
A0
40
ENDCHAR
STARTCHAR onesuperior
ENCODING 185
SWIDTH 300 0
DWIDTH 6 0
BBX 3 6 1 6
BITMAP
40
C0
40
40
40
E0
ENDCHAR
STARTCHAR ordmasculine
ENCODING 186
SWIDTH 300 0
DWIDTH 6 0
BBX 5 7 0 4
BITMAP
70
88
88
88
70
00
70
ENDCHAR
STARTCHAR guillemotright
ENCODING 187
SWIDTH 400 0
DWIDTH 8 0
BBX 7 7 0 1
BITMAP
90
48
24
12
24
48
90
ENDCHAR
STARTCHAR onequarter
ENCODING 188
SWIDTH 500 0
DWIDTH 10 0
BBX 9 11 0 0
BITMAP
4200
C200
4400
4400
E800
0800
0900
1300
1500
2780
2100
ENDCHAR
STARTCHAR onehalf
ENCODING 189
SWIDTH 500 0
DWIDTH 10 0
BBX 9 11 0 0
BITMAP
4200
C200
4400
4400
E800
0800
0B00
1480
1100
2200
2780
ENDCHAR
STARTCHAR threequarters
ENCODING 190
SWIDTH 500 0
DWIDTH 10 0
BBX 9 11 0 0
BITMAP
6200
9200
2400
9400
6800
0800
0900
1300
1500
2780
2100
ENDCHAR
STARTCHAR questiondown
ENCODING 191
SWIDTH 400 0
DWIDTH 8 0
BBX 7 11 0 -3
BITMAP
10
10
00
10
10
20
40
80
82
44
38
ENDCHAR
STARTCHAR Agrave
ENCODING 192
SWIDTH 500 0
DWIDTH 10 0
BBX 9 14 0 0
BITMAP
1000
0800
0000
1800
0800
1400
1400
1400
2200
3E00
2200
4100
4100
E380
ENDCHAR
STARTCHAR Aacute
ENCODING 193
SWIDTH 500 0
DWIDTH 10 0
BBX 9 14 0 0
BITMAP
0400
0800
0000
1800
0800
1400
1400
1400
2200
3E00
2200
4100
4100
E380
ENDCHAR
STARTCHAR Acircumflex
ENCODING 194
SWIDTH 500 0
DWIDTH 10 0
BBX 9 14 0 0
BITMAP
0800
1400
0000
1800
0800
1400
1400
1400
2200
3E00
2200
4100
4100
E380
ENDCHAR
STARTCHAR Atilde
ENCODING 195
SWIDTH 500 0
DWIDTH 10 0
BBX 9 14 0 0
BITMAP
1A00
2C00
0000
1800
0800
1400
1400
1400
2200
3E00
2200
4100
4100
E380
ENDCHAR
STARTCHAR Adieresis
ENCODING 196
SWIDTH 500 0
DWIDTH 10 0
BBX 9 13 0 0
BITMAP
3600
0000
1800
0800
1400
1400
1400
2200
3E00
2200
4100
4100
E380
ENDCHAR
STARTCHAR Aring
ENCODING 197
SWIDTH 500 0
DWIDTH 10 0
BBX 9 14 0 0
BITMAP
1C00
2200
1C00
0800
0800
1400
1400
1400
2200
3E00
2200
4100
4100
E380
ENDCHAR
STARTCHAR AE
ENCODING 198
SWIDTH 700 0
DWIDTH 14 0
BBX 13 11 0 0
BITMAP
0FF8
0608
0A00
0A00
1220
1FE0
2220
2200
4200
4208
E7F8
ENDCHAR
STARTCHAR Ccedilla
ENCODING 199
SWIDTH 450 0
DWIDTH 9 0
BBX 8 15 0 -4
BITMAP
1D
63
41
80
80
80
80
80
41
63
1C
08
04
14
08
ENDCHAR
STARTCHAR Egrave
ENCODING 200
SWIDTH 450 0
DWIDTH 9 0
BBX 8 14 0 0
BITMAP
10
08
00
FF
41
40
40
44
7C
44
40
40
41
FF
ENDCHAR
STARTCHAR Eacute
ENCODING 201
SWIDTH 450 0
DWIDTH 9 0
BBX 8 14 0 0
BITMAP
08
10
00
FF
41
40
40
44
7C
44
40
40
41
FF
ENDCHAR
STARTCHAR Ecircumflex
ENCODING 202
SWIDTH 450 0
DWIDTH 9 0
BBX 8 14 0 0
BITMAP
18
24
00
FF
41
40
40
44
7C
44
40
40
41
FF
ENDCHAR
STARTCHAR Edieresis
ENCODING 203
SWIDTH 450 0
DWIDTH 9 0
BBX 8 13 0 0
BITMAP
66
00
FF
41
40
40
44
7C
44
40
40
41
FF
ENDCHAR
STARTCHAR Igrave
ENCODING 204
SWIDTH 200 0
DWIDTH 4 0
BBX 3 14 0 0
BITMAP
80
40
00
E0
40
40
40
40
40
40
40
40
40
E0
ENDCHAR
STARTCHAR Iacute
ENCODING 205
SWIDTH 200 0
DWIDTH 4 0
BBX 3 14 0 0
BITMAP
20
40
00
E0
40
40
40
40
40
40
40
40
40
E0
ENDCHAR
STARTCHAR Icircumflex
ENCODING 206
SWIDTH 200 0
DWIDTH 4 0
BBX 3 14 0 0
BITMAP
40
A0
00
E0
40
40
40
40
40
40
40
40
40
E0
ENDCHAR
STARTCHAR Idieresis
ENCODING 207
SWIDTH 200 0
DWIDTH 4 0
BBX 5 13 -1 0
BITMAP
D8
00
70
20
20
20
20
20
20
20
20
20
70
ENDCHAR
STARTCHAR Eth
ENCODING 208
SWIDTH 450 0
DWIDTH 9 0
BBX 8 11 0 0
BITMAP
F8
46
42
41
41
E1
41
41
42
46
F8
ENDCHAR
STARTCHAR Ntilde
ENCODING 209
SWIDTH 500 0
DWIDTH 10 0
BBX 9 14 0 0
BITMAP
3900
4E00
0000
C380
6100
6100
5100
5100
4900
4900
4500
4500
4300
E100
ENDCHAR
STARTCHAR Ograve
ENCODING 210
SWIDTH 500 0
DWIDTH 10 0
BBX 9 14 0 0
BITMAP
1000
0800
0000
1C00
6300
4100
8080
8080
8080
8080
8080
4100
6300
1C00
ENDCHAR
STARTCHAR Oacute
ENCODING 211
SWIDTH 500 0
DWIDTH 10 0
BBX 9 14 0 0
BITMAP
0400
0800
0000
1C00
6300
4100
8080
8080
8080
8080
8080
4100
6300
1C00
ENDCHAR
STARTCHAR Ocircumflex
ENCODING 212
SWIDTH 500 0
DWIDTH 10 0
BBX 9 14 0 0
BITMAP
0800
1400
0000
1C00
6300
4100
8080
8080
8080
8080
8080
4100
6300
1C00
ENDCHAR
STARTCHAR Otilde
ENCODING 213
SWIDTH 500 0
DWIDTH 10 0
BBX 9 14 0 0
BITMAP
1A00
2C00
0000
1C00
6300
4100
8080
8080
8080
8080
8080
4100
6300
1C00
ENDCHAR
STARTCHAR Odieresis
ENCODING 214
SWIDTH 500 0
DWIDTH 10 0
BBX 9 13 0 0
BITMAP
3600
0000
1C00
6300
4100
8080
8080
8080
8080
8080
4100
6300
1C00
ENDCHAR
STARTCHAR multiply
ENCODING 215
SWIDTH 400 0
DWIDTH 8 0
BBX 7 7 0 1
BITMAP
82
44
28
10
28
44
82
ENDCHAR
STARTCHAR Oslash
ENCODING 216
SWIDTH 500 0
DWIDTH 10 0
BBX 9 11 0 0
BITMAP
1C80
6300
4100
8280
8480
8880
9080
A080
4100
6300
9C00
ENDCHAR
STARTCHAR Ugrave
ENCODING 217
SWIDTH 550 0
DWIDTH 11 0
BBX 10 14 0 0
BITMAP
0800
0400
0000
E1C0
4080
4080
4080
4080
4080
4080
4080
2100
3300
0C00
ENDCHAR
STARTCHAR Uacute
ENCODING 218
SWIDTH 550 0
DWIDTH 11 0
BBX 10 14 0 0
BITMAP
0400
0800
0000
E1C0
4080
4080
4080
4080
4080
4080
4080
2100
3300
0C00
ENDCHAR
STARTCHAR Ucircumflex
ENCODING 219
SWIDTH 550 0
DWIDTH 11 0
BBX 10 14 0 0
BITMAP
0C00
1200
0000
E1C0
4080
4080
4080
4080
4080
4080
4080
2100
3300
0C00
ENDCHAR
STARTCHAR Udieresis
ENCODING 220
SWIDTH 550 0
DWIDTH 11 0
BBX 10 13 0 0
BITMAP
3300
0000
E1C0
4080
4080
4080
4080
4080
4080
4080
2100
3300
0C00
ENDCHAR
STARTCHAR Yacute
ENCODING 221
SWIDTH 500 0
DWIDTH 10 0
BBX 9 14 0 0
BITMAP
0400
0800
0000
E380
4100
2200
2200
1400
0800
0800
0800
0800
0800
1C00
ENDCHAR
STARTCHAR Thorn
ENCODING 222
SWIDTH 450 0
DWIDTH 9 0
BBX 8 11 0 0
BITMAP
E0
40
7C
42
41
41
41
42
7C
40
E0
ENDCHAR
STARTCHAR germandbls
ENCODING 223
SWIDTH 450 0
DWIDTH 9 0
BBX 8 11 0 0
BITMAP
1C
22
41
41
42
4C
42
41
41
42
CC
ENDCHAR
STARTCHAR agrave
ENCODING 224
SWIDTH 400 0
DWIDTH 8 0
BBX 7 11 0 0
BITMAP
20
10
00
38
44
04
3C
44
84
8C
76
ENDCHAR
STARTCHAR aacute
ENCODING 225
SWIDTH 400 0
DWIDTH 8 0
BBX 7 11 0 0
BITMAP
08
10
00
38
44
04
3C
44
84
8C
76
ENDCHAR
STARTCHAR acircumflex
ENCODING 226
SWIDTH 400 0
DWIDTH 8 0
BBX 7 11 0 0
BITMAP
10
28
00
38
44
04
3C
44
84
8C
76
ENDCHAR
STARTCHAR atilde
ENCODING 227
SWIDTH 400 0
DWIDTH 8 0
BBX 7 11 0 0
BITMAP
34
58
00
38
44
04
3C
44
84
8C
76
ENDCHAR
STARTCHAR adieresis
ENCODING 228
SWIDTH 400 0
DWIDTH 8 0
BBX 7 10 0 0
BITMAP
6C
00
38
44
04
3C
44
84
8C
76
ENDCHAR
STARTCHAR aring
ENCODING 229
SWIDTH 400 0
DWIDTH 8 0
BBX 7 12 0 0
BITMAP
38
44
38
00
38
44
04
3C
44
84
8C
76
ENDCHAR
STARTCHAR ae
ENCODING 230
SWIDTH 650 0
DWIDTH 13 0
BBX 12 8 0 0
BITMAP
39C0
4620
0410
3FF0
4400
8400
8A20
71C0
ENDCHAR
STARTCHAR ccedilla
ENCODING 231
SWIDTH 400 0
DWIDTH 8 0
BBX 7 12 0 -4
BITMAP
3A
46
82
80
80
82
44
38
10
08
28
10
ENDCHAR
STARTCHAR egrave
ENCODING 232
SWIDTH 400 0
DWIDTH 8 0
BBX 7 11 0 0
BITMAP
20
10
00
38
44
82
FE
80
80
44
38
ENDCHAR
STARTCHAR eacute
ENCODING 233
SWIDTH 400 0
DWIDTH 8 0
BBX 7 11 0 0
BITMAP
08
10
00
38
44
82
FE
80
80
44
38
ENDCHAR
STARTCHAR ecircumflex
ENCODING 234
SWIDTH 400 0
DWIDTH 8 0
BBX 7 11 0 0
BITMAP
10
28
00
38
44
82
FE
80
80
44
38
ENDCHAR
STARTCHAR edieresis
ENCODING 235
SWIDTH 400 0
DWIDTH 8 0
BBX 7 10 0 0
BITMAP
6C
00
38
44
82
FE
80
80
44
38
ENDCHAR
STARTCHAR igrave
ENCODING 236
SWIDTH 200 0
DWIDTH 4 0
BBX 3 12 0 0
BITMAP
80
40
00
00
C0
40
40
40
40
40
40
E0
ENDCHAR
STARTCHAR iacute
ENCODING 237
SWIDTH 200 0
DWIDTH 4 0
BBX 3 12 0 0
BITMAP
20
40
00
00
C0
40
40
40
40
40
40
E0
ENDCHAR
STARTCHAR icircumflex
ENCODING 238
SWIDTH 200 0
DWIDTH 4 0
BBX 3 12 0 0
BITMAP
40
A0
00
00
C0
40
40
40
40
40
40
E0
ENDCHAR
STARTCHAR idieresis
ENCODING 239
SWIDTH 200 0
DWIDTH 4 0
BBX 5 11 -1 0
BITMAP
D8
00
00
60
20
20
20
20
20
20
70
ENDCHAR
STARTCHAR eth
ENCODING 240
SWIDTH 400 0
DWIDTH 8 0
BBX 7 12 0 0
BITMAP
72
0C
14
02
3A
46
82
82
82
82
44
38
ENDCHAR
STARTCHAR ntilde
ENCODING 241
SWIDTH 450 0
DWIDTH 9 0
BBX 8 11 0 0
BITMAP
32
4C
00
D8
64
42
42
42
42
42
E7
ENDCHAR
STARTCHAR ograve
ENCODING 242
SWIDTH 400 0
DWIDTH 8 0
BBX 7 11 0 0
BITMAP
20
10
00
38
44
82
82
82
82
44
38
ENDCHAR
STARTCHAR oacute
ENCODING 243
SWIDTH 400 0
DWIDTH 8 0
BBX 7 11 0 0
BITMAP
08
10
00
38
44
82
82
82
82
44
38
ENDCHAR
STARTCHAR ocircumflex
ENCODING 244
SWIDTH 400 0
DWIDTH 8 0
BBX 7 11 0 0
BITMAP
10
28
00
38
44
82
82
82
82
44
38
ENDCHAR
STARTCHAR otilde
ENCODING 245
SWIDTH 400 0
DWIDTH 8 0
BBX 7 11 0 0
BITMAP
34
58
00
38
44
82
82
82
82
44
38
ENDCHAR
STARTCHAR odieresis
ENCODING 246
SWIDTH 400 0
DWIDTH 8 0
BBX 7 10 0 0
BITMAP
6C
00
38
44
82
82
82
82
44
38
ENDCHAR
STARTCHAR divide
ENCODING 247
SWIDTH 400 0
DWIDTH 8 0
BBX 7 7 0 1
BITMAP
10
10
00
FE
00
10
10
ENDCHAR
STARTCHAR oslash
ENCODING 248
SWIDTH 400 0
DWIDTH 8 0
BBX 7 8 0 0
BITMAP
3A
44
8A
92
92
A2
44
B8
ENDCHAR
STARTCHAR ugrave
ENCODING 249
SWIDTH 450 0
DWIDTH 9 0
BBX 8 11 0 0
BITMAP
20
10
00
C6
42
42
42
42
42
26
1B
ENDCHAR
STARTCHAR uacute
ENCODING 250
SWIDTH 450 0
DWIDTH 9 0
BBX 8 11 0 0
BITMAP
08
10
00
C6
42
42
42
42
42
26
1B
ENDCHAR
STARTCHAR ucircumflex
ENCODING 251
SWIDTH 450 0
DWIDTH 9 0
BBX 8 11 0 0
BITMAP
10
28
00
C6
42
42
42
42
42
26
1B
ENDCHAR
STARTCHAR udieresis
ENCODING 252
SWIDTH 450 0
DWIDTH 9 0
BBX 8 10 0 0
BITMAP
6C
00
C6
42
42
42
42
42
26
1B
ENDCHAR
STARTCHAR yacute
ENCODING 253
SWIDTH 400 0
DWIDTH 8 0
BBX 7 15 0 -4
BITMAP
08
10
00
EE
44
44
28
28
28
10
10
20
20
40
80
ENDCHAR
STARTCHAR thorn
ENCODING 254
SWIDTH 450 0
DWIDTH 9 0
BBX 8 16 0 -4
BITMAP
C0
40
40
40
5C
62
41
41
41
41
62
5C
40
40
40
E0
ENDCHAR
STARTCHAR ydieresis
ENCODING 255
SWIDTH 400 0
DWIDTH 8 0
BBX 7 14 0 -4
BITMAP
6C
00
EE
44
44
28
28
28
10
10
20
20
40
80
ENDCHAR
STARTCHAR Amacron
ENCODING 256
SWIDTH 500 0
DWIDTH 10 0
BBX 9 13 0 0
BITMAP
3E00
0000
1800
0800
1400
1400
1400
2200
3E00
2200
4100
4100
E380
ENDCHAR
STARTCHAR amacron
ENCODING 257
SWIDTH 400 0
DWIDTH 8 0
BBX 7 10 0 0
BITMAP
7C
00
38
44
04
3C
44
84
8C
76
ENDCHAR
STARTCHAR Abreve
ENCODING 258
SWIDTH 500 0
DWIDTH 10 0
BBX 9 14 0 0
BITMAP
2200
1C00
0000
1800
0800
1400
1400
1400
2200
3E00
2200
4100
4100
E380
ENDCHAR
STARTCHAR abreve
ENCODING 259
SWIDTH 400 0
DWIDTH 8 0
BBX 7 11 0 0
BITMAP
44
38
00
38
44
04
3C
44
84
8C
76
ENDCHAR
STARTCHAR Aogonek
ENCODING 260
SWIDTH 500 0
DWIDTH 10 0
BBX 9 15 0 -4
BITMAP
1800
0800
1400
1400
1400
2200
3E00
2200
4100
4100
E380
0800
1000
1400
0800
ENDCHAR
STARTCHAR aogonek
ENCODING 261
SWIDTH 400 0
DWIDTH 8 0
BBX 7 12 0 -4
BITMAP
38
44
04
3C
44
84
8C
76
20
40
50
20
ENDCHAR
STARTCHAR Cacute
ENCODING 262
SWIDTH 450 0
DWIDTH 9 0
BBX 8 14 0 0
BITMAP
04
08
00
1D
63
41
80
80
80
80
80
41
63
1C
ENDCHAR
STARTCHAR cacute
ENCODING 263
SWIDTH 400 0
DWIDTH 8 0
BBX 7 11 0 0
BITMAP
08
10
00
3A
46
82
80
80
82
44
38
ENDCHAR
STARTCHAR Ccircumflex
ENCODING 264
SWIDTH 450 0
DWIDTH 9 0
BBX 8 14 0 0
BITMAP
08
14
00
1D
63
41
80
80
80
80
80
41
63
1C
ENDCHAR
STARTCHAR ccircumflex
ENCODING 265
SWIDTH 400 0
DWIDTH 8 0
BBX 7 11 0 0
BITMAP
10
28
00
3A
46
82
80
80
82
44
38
ENDCHAR
STARTCHAR Cdotaccent
ENCODING 266
SWIDTH 450 0
DWIDTH 9 0
BBX 8 13 0 0
BITMAP
18
00
1D
63
41
80
80
80
80
80
41
63
1C
ENDCHAR
STARTCHAR cdotaccent
ENCODING 267
SWIDTH 400 0
DWIDTH 8 0
BBX 7 10 0 0
BITMAP
30
00
3A
46
82
80
80
82
44
38
ENDCHAR
STARTCHAR Ccaron
ENCODING 268
SWIDTH 450 0
DWIDTH 9 0
BBX 8 14 0 0
BITMAP
14
08
00
1D
63
41
80
80
80
80
80
41
63
1C
ENDCHAR
STARTCHAR ccaron
ENCODING 269
SWIDTH 400 0
DWIDTH 8 0
BBX 7 11 0 0
BITMAP
28
10
00
3A
46
82
80
80
82
44
38
ENDCHAR
STARTCHAR Dcaron
ENCODING 270
SWIDTH 450 0
DWIDTH 9 0
BBX 8 14 0 0
BITMAP
28
10
00
F8
46
42
41
41
41
41
41
42
46
F8
ENDCHAR
STARTCHAR dcaron
ENCODING 271
SWIDTH 450 0
DWIDTH 9 0
BBX 10 12 0 0
BITMAP
06C0
02C0
0240
0280
3A00
4600
8200
8200
8200
8200
4600
3B00
ENDCHAR
STARTCHAR Dcroat
ENCODING 272
SWIDTH 450 0
DWIDTH 9 0
BBX 8 11 0 0
BITMAP
F8
46
42
41
41
E1
41
41
42
46
F8
ENDCHAR
STARTCHAR dcroat
ENCODING 273
SWIDTH 450 0
DWIDTH 9 0
BBX 8 12 0 0
BITMAP
06
02
07
02
3A
46
82
82
82
82
46
3B
ENDCHAR
STARTCHAR Emacron
ENCODING 274
SWIDTH 450 0
DWIDTH 9 0
BBX 8 13 0 0
BITMAP
3C
00
FF
41
40
40
44
7C
44
40
40
41
FF
ENDCHAR
STARTCHAR emacron
ENCODING 275
SWIDTH 400 0
DWIDTH 8 0
BBX 7 10 0 0
BITMAP
7C
00
38
44
82
FE
80
80
44
38
ENDCHAR
STARTCHAR Ebreve
ENCODING 276
SWIDTH 450 0
DWIDTH 9 0
BBX 8 14 0 0
BITMAP
42
3C
00
FF
41
40
40
44
7C
44
40
40
41
FF
ENDCHAR
STARTCHAR ebreve
ENCODING 277
SWIDTH 400 0
DWIDTH 8 0
BBX 7 11 0 0
BITMAP
44
38
00
38
44
82
FE
80
80
44
38
ENDCHAR
STARTCHAR Edotaccent
ENCODING 278
SWIDTH 450 0
DWIDTH 9 0
BBX 8 13 0 0
BITMAP
18
00
FF
41
40
40
44
7C
44
40
40
41
FF
ENDCHAR
STARTCHAR edotaccent
ENCODING 279
SWIDTH 400 0
DWIDTH 8 0
BBX 7 10 0 0
BITMAP
30
00
38
44
82
FE
80
80
44
38
ENDCHAR
STARTCHAR Eogonek
ENCODING 280
SWIDTH 450 0
DWIDTH 9 0
BBX 8 15 0 -4
BITMAP
FF
41
40
40
44
7C
44
40
40
41
FF
08
10
14
08
ENDCHAR
STARTCHAR eogonek
ENCODING 281
SWIDTH 400 0
DWIDTH 8 0
BBX 7 12 0 -4
BITMAP
38
44
82
FE
80
80
44
38
10
20
28
10
ENDCHAR
STARTCHAR Ecaron
ENCODING 282
SWIDTH 450 0
DWIDTH 9 0
BBX 8 14 0 0
BITMAP
24
18
00
FF
41
40
40
44
7C
44
40
40
41
FF
ENDCHAR
STARTCHAR ecaron
ENCODING 283
SWIDTH 400 0
DWIDTH 8 0
BBX 7 11 0 0
BITMAP
28
10
00
38
44
82
FE
80
80
44
38
ENDCHAR
STARTCHAR Gcircumflex
ENCODING 284
SWIDTH 450 0
DWIDTH 9 0
BBX 8 14 0 0
BITMAP
08
14
00
1D
63
41
80
80
87
81
81
41
63
1D
ENDCHAR
STARTCHAR gcircumflex
ENCODING 285
SWIDTH 450 0
DWIDTH 9 0
BBX 8 15 0 -4
BITMAP
10
28
00
3B
46
82
82
82
82
46
3A
02
02
04
38
ENDCHAR
STARTCHAR Gbreve
ENCODING 286
SWIDTH 450 0
DWIDTH 9 0
BBX 8 14 0 0
BITMAP
22
1C
00
1D
63
41
80
80
87
81
81
41
63
1D
ENDCHAR
STARTCHAR gbreve
ENCODING 287
SWIDTH 450 0
DWIDTH 9 0
BBX 8 15 0 -4
BITMAP
44
38
00
3B
46
82
82
82
82
46
3A
02
02
04
38
ENDCHAR
STARTCHAR Gdotaccent
ENCODING 288
SWIDTH 450 0
DWIDTH 9 0
BBX 8 13 0 0
BITMAP
18
00
1D
63
41
80
80
87
81
81
41
63
1D
ENDCHAR
STARTCHAR gdotaccent
ENCODING 289
SWIDTH 450 0
DWIDTH 9 0
BBX 8 14 0 -4
BITMAP
30
00
3B
46
82
82
82
82
46
3A
02
02
04
38
ENDCHAR
STARTCHAR Gcommaaccent
ENCODING 290
SWIDTH 450 0
DWIDTH 9 0
BBX 8 15 0 -4
BITMAP
1D
63
41
80
80
87
81
81
41
63
1D
00
08
08
10
ENDCHAR
STARTCHAR gcommaaccent
ENCODING 291
SWIDTH 450 0
DWIDTH 9 0
BBX 8 16 0 -4
BITMAP
08
10
10
00
3B
46
82
82
82
82
46
3A
02
02
04
38
ENDCHAR
STARTCHAR Hcircumflex
ENCODING 292
SWIDTH 500 0
DWIDTH 10 0
BBX 9 14 0 0
BITMAP
1400
0800
0000
E380
4100
4100
4100
4100
7F00
4100
4100
4100
4100
E380
ENDCHAR
STARTCHAR hcircumflex
ENCODING 293
SWIDTH 450 0
DWIDTH 9 0
BBX 8 14 0 0
BITMAP
28
10
C0
40
40
40
58
64
42
42
42
42
42
E7
ENDCHAR
STARTCHAR Hbar
ENCODING 294
SWIDTH 500 0
DWIDTH 10 0
BBX 9 11 0 0
BITMAP
E380
4100
FF80
4100
4100
7F00
4100
4100
4100
4100
E380
ENDCHAR
STARTCHAR hbar
ENCODING 295
SWIDTH 450 0
DWIDTH 9 0
BBX 8 12 0 0
BITMAP
C0
40
E0
40
58
64
42
42
42
42
42
E7
ENDCHAR
STARTCHAR Itilde
ENCODING 296
SWIDTH 200 0
DWIDTH 4 0
BBX 5 14 -1 0
BITMAP
68
B0
00
70
20
20
20
20
20
20
20
20
20
70
ENDCHAR
STARTCHAR itilde
ENCODING 297
SWIDTH 200 0
DWIDTH 4 0
BBX 5 12 -1 0
BITMAP
68
B0
00
00
60
20
20
20
20
20
20
70
ENDCHAR
STARTCHAR Imacron
ENCODING 298
SWIDTH 200 0
DWIDTH 4 0
BBX 5 13 -1 0
BITMAP
F8
00
70
20
20
20
20
20
20
20
20
20
70
ENDCHAR
STARTCHAR imacron
ENCODING 299
SWIDTH 200 0
DWIDTH 4 0
BBX 5 11 -1 0
BITMAP
F8
00
00
60
20
20
20
20
20
20
70
ENDCHAR
STARTCHAR Ibreve
ENCODING 300
SWIDTH 200 0
DWIDTH 4 0
BBX 5 14 -1 0
BITMAP
88
70
00
70
20
20
20
20
20
20
20
20
20
70
ENDCHAR
STARTCHAR ibreve
ENCODING 301
SWIDTH 200 0
DWIDTH 4 0
BBX 5 12 -1 0
BITMAP
88
70
00
00
60
20
20
20
20
20
20
70
ENDCHAR
STARTCHAR Iogonek
ENCODING 302
SWIDTH 200 0
DWIDTH 4 0
BBX 3 15 0 -4
BITMAP
E0
40
40
40
40
40
40
40
40
40
E0
40
80
A0
40
ENDCHAR
STARTCHAR iogonek
ENCODING 303
SWIDTH 200 0
DWIDTH 4 0
BBX 3 16 0 -4
BITMAP
40
40
00
00
C0
40
40
40
40
40
40
E0
40
80
A0
40
ENDCHAR
STARTCHAR Idotaccent
ENCODING 304
SWIDTH 200 0
DWIDTH 4 0
BBX 3 13 0 0
BITMAP
C0
00
E0
40
40
40
40
40
40
40
40
40
E0
ENDCHAR
STARTCHAR dotlessi
ENCODING 305
SWIDTH 200 0
DWIDTH 4 0
BBX 3 8 0 0
BITMAP
C0
40
40
40
40
40
40
E0
ENDCHAR
STARTCHAR IJ
ENCODING 306
SWIDTH 500 0
DWIDTH 10 0
BBX 9 11 0 0
BITMAP
E380
4100
4100
4100
4100
4100
4100
4100
4100
4200
EC00
ENDCHAR
STARTCHAR ij
ENCODING 307
SWIDTH 350 0
DWIDTH 7 0
BBX 6 16 0 -4
BITMAP
44
44
00
00
CC
44
44
44
44
44
44
E4
04
04
08
30
ENDCHAR
STARTCHAR Jcircumflex
ENCODING 308
SWIDTH 450 0
DWIDTH 9 0
BBX 8 14 0 0
BITMAP
02
05
00
07
02
02
02
02
02
02
02
84
CC
30
ENDCHAR
STARTCHAR jcircumflex
ENCODING 309
SWIDTH 150 0
DWIDTH 3 0
BBX 5 16 -2 -4
BITMAP
10
28
00
00
30
10
10
10
10
10
10
10
10
10
20
C0
ENDCHAR
STARTCHAR Kcommaaccent
ENCODING 310
SWIDTH 450 0
DWIDTH 9 0
BBX 8 15 0 -4
BITMAP
E7
42
44
48
50
68
44
44
42
42
E7
00
10
10
20
ENDCHAR
STARTCHAR kcommaaccent
ENCODING 311
SWIDTH 450 0
DWIDTH 9 0
BBX 8 16 0 -4
BITMAP
C0
40
40
40
4E
44
48
50
68
44
42
E7
00
10
10
20
ENDCHAR
STARTCHAR kgreenlandic
ENCODING 312
SWIDTH 450 0
DWIDTH 9 0
BBX 8 8 0 0
BITMAP
CE
44
48
50
68
44
42
E7
ENDCHAR
STARTCHAR Lacute
ENCODING 313
SWIDTH 450 0
DWIDTH 9 0
BBX 8 14 0 0
BITMAP
20
40
00
E0
40
40
40
40
40
40
40
40
41
FF
ENDCHAR
STARTCHAR lacute
ENCODING 314
SWIDTH 200 0
DWIDTH 4 0
BBX 3 15 0 0
BITMAP
20
40
00
C0
40
40
40
40
40
40
40
40
40
40
E0
ENDCHAR
STARTCHAR Lcommaaccent
ENCODING 315
SWIDTH 450 0
DWIDTH 9 0
BBX 8 15 0 -4
BITMAP
E0
40
40
40
40
40
40
40
40
41
FF
00
10
10
20
ENDCHAR
STARTCHAR lcommaaccent
ENCODING 316
SWIDTH 200 0
DWIDTH 4 0
BBX 3 16 0 -4
BITMAP
C0
40
40
40
40
40
40
40
40
40
40
E0
00
40
40
80
ENDCHAR
STARTCHAR Lcaron
ENCODING 317
SWIDTH 450 0
DWIDTH 9 0
BBX 8 14 0 0
BITMAP
A0
40
00
E0
40
40
40
40
40
40
40
40
41
FF
ENDCHAR
STARTCHAR lcaron
ENCODING 318
SWIDTH 200 0
DWIDTH 4 0
BBX 5 12 0 0
BITMAP
D8
58
48
50
40
40
40
40
40
40
40
E0
ENDCHAR
STARTCHAR Ldot
ENCODING 319
SWIDTH 450 0
DWIDTH 9 0
BBX 8 11 0 0
BITMAP
E0
40
40
40
40
58
40
40
40
41
FF
ENDCHAR
STARTCHAR ldot
ENCODING 320
SWIDTH 200 0
DWIDTH 4 0
BBX 5 12 0 0
BITMAP
C0
40
40
40
40
40
58
40
40
40
40
E0
ENDCHAR
STARTCHAR Lslash
ENCODING 321
SWIDTH 450 0
DWIDTH 9 0
BBX 8 11 0 0
BITMAP
E0
40
40
40
60
C0
40
40
40
41
FF
ENDCHAR
STARTCHAR lslash
ENCODING 322
SWIDTH 200 0
DWIDTH 4 0
BBX 3 12 0 0
BITMAP
C0
40
40
40
40
60
C0
40
40
40
40
E0
ENDCHAR
STARTCHAR Nacute
ENCODING 323
SWIDTH 500 0
DWIDTH 10 0
BBX 9 14 0 0
BITMAP
0400
0800
0000
C380
6100
6100
5100
5100
4900
4900
4500
4500
4300
E100
ENDCHAR
STARTCHAR nacute
ENCODING 324
SWIDTH 450 0
DWIDTH 9 0
BBX 8 11 0 0
BITMAP
08
10
00
D8
64
42
42
42
42
42
E7
ENDCHAR
STARTCHAR Ncommaaccent
ENCODING 325
SWIDTH 500 0
DWIDTH 10 0
BBX 9 15 0 -4
BITMAP
C380
6100
6100
5100
5100
4900
4900
4500
4500
4300
E100
0000
0800
0800
1000
ENDCHAR
STARTCHAR ncommaaccent
ENCODING 326
SWIDTH 450 0
DWIDTH 9 0
BBX 8 12 0 -4
BITMAP
D8
64
42
42
42
42
42
E7
00
08
08
10
ENDCHAR
STARTCHAR Ncaron
ENCODING 327
SWIDTH 500 0
DWIDTH 10 0
BBX 9 14 0 0
BITMAP
1400
0800
0000
C380
6100
6100
5100
5100
4900
4900
4500
4500
4300
E100
ENDCHAR
STARTCHAR ncaron
ENCODING 328
SWIDTH 450 0
DWIDTH 9 0
BBX 8 11 0 0
BITMAP
24
18
00
D8
64
42
42
42
42
42
E7
ENDCHAR
STARTCHAR napostrophe
ENCODING 329
SWIDTH 450 0
DWIDTH 9 0
BBX 10 13 -2 0
BITMAP
C000
C000
4000
8000
0000
3600
1900
1080
1080
1080
1080
1080
39C0
ENDCHAR
STARTCHAR Eng
ENCODING 330
SWIDTH 500 0
DWIDTH 10 0
BBX 9 15 0 -4
BITMAP
C380
6100
6100
5100
5100
4900
4900
4500
4500
4300
E100
0100
0100
0200
1C00
ENDCHAR
STARTCHAR eng
ENCODING 331
SWIDTH 450 0
DWIDTH 9 0
BBX 7 12 0 -4
BITMAP
D8
64
42
42
42
42
42
E2
02
02
04
38
ENDCHAR
STARTCHAR Omacron
ENCODING 332
SWIDTH 500 0
DWIDTH 10 0
BBX 9 13 0 0
BITMAP
3E00
0000
1C00
6300
4100
8080
8080
8080
8080
8080
4100
6300
1C00
ENDCHAR
STARTCHAR omacron
ENCODING 333
SWIDTH 400 0
DWIDTH 8 0
BBX 7 10 0 0
BITMAP
7C
00
38
44
82
82
82
82
44
38
ENDCHAR
STARTCHAR Obreve
ENCODING 334
SWIDTH 500 0
DWIDTH 10 0
BBX 9 14 0 0
BITMAP
2200
1C00
0000
1C00
6300
4100
8080
8080
8080
8080
8080
4100
6300
1C00
ENDCHAR
STARTCHAR obreve
ENCODING 335
SWIDTH 400 0
DWIDTH 8 0
BBX 7 11 0 0
BITMAP
44
38
00
38
44
82
82
82
82
44
38
ENDCHAR
STARTCHAR Ohungarumlaut
ENCODING 336
SWIDTH 500 0
DWIDTH 10 0
BBX 9 14 0 0
BITMAP
0A00
1400
0000
1C00
6300
4100
8080
8080
8080
8080
8080
4100
6300
1C00
ENDCHAR
STARTCHAR ohungarumlaut
ENCODING 337
SWIDTH 400 0
DWIDTH 8 0
BBX 7 11 0 0
BITMAP
14
28
00
38
44
82
82
82
82
44
38
ENDCHAR
STARTCHAR OE
ENCODING 338
SWIDTH 650 0
DWIDTH 13 0
BBX 12 11 0 0
BITMAP
1FF0
6410
4400
8400
8440
87C0
8440
8400
4400
6410
1FF0
ENDCHAR
STARTCHAR oe
ENCODING 339
SWIDTH 700 0
DWIDTH 14 0
BBX 13 8 0 0
BITMAP
38E0
4510
8208
83F8
8200
8200
4510
38E0
ENDCHAR
STARTCHAR Racute
ENCODING 340
SWIDTH 450 0
DWIDTH 9 0
BBX 8 14 0 0
BITMAP
08
10
00
FC
42
41
41
42
7C
48
44
42
42
E1
ENDCHAR
STARTCHAR racute
ENCODING 341
SWIDTH 400 0
DWIDTH 8 0
BBX 7 11 0 0
BITMAP
08
10
00
DC
62
40
40
40
40
40
E0
ENDCHAR
STARTCHAR Rcommaaccent
ENCODING 342
SWIDTH 450 0
DWIDTH 9 0
BBX 8 15 0 -4
BITMAP
FC
42
41
41
42
7C
48
44
42
42
E1
00
08
08
10
ENDCHAR
STARTCHAR rcommaaccent
ENCODING 343
SWIDTH 400 0
DWIDTH 8 0
BBX 7 12 0 -4
BITMAP
DC
62
40
40
40
40
40
E0
00
10
10
20
ENDCHAR
STARTCHAR Rcaron
ENCODING 344
SWIDTH 450 0
DWIDTH 9 0
BBX 8 14 0 0
BITMAP
28
10
00
FC
42
41
41
42
7C
48
44
42
42
E1
ENDCHAR
STARTCHAR rcaron
ENCODING 345
SWIDTH 400 0
DWIDTH 8 0
BBX 7 11 0 0
BITMAP
28
10
00
DC
62
40
40
40
40
40
E0
ENDCHAR
STARTCHAR Sacute
ENCODING 346
SWIDTH 400 0
DWIDTH 8 0
BBX 7 14 0 0
BITMAP
08
10
00
3A
46
82
80
40
38
04
02
82
C4
B8
ENDCHAR
STARTCHAR sacute
ENCODING 347
SWIDTH 350 0
DWIDTH 7 0
BBX 6 11 0 0
BITMAP
10
20
00
74
8C
84
60
18
84
C4
B8
ENDCHAR
STARTCHAR Scircumflex
ENCODING 348
SWIDTH 400 0
DWIDTH 8 0
BBX 7 14 0 0
BITMAP
10
28
00
3A
46
82
80
40
38
04
02
82
C4
B8
ENDCHAR
STARTCHAR scircumflex
ENCODING 349
SWIDTH 350 0
DWIDTH 7 0
BBX 6 11 0 0
BITMAP
30
48
00
74
8C
84
60
18
84
C4
B8
ENDCHAR
STARTCHAR Scedilla
ENCODING 350
SWIDTH 400 0
DWIDTH 8 0
BBX 7 15 0 -4
BITMAP
3A
46
82
80
40
38
04
02
82
C4
B8
10
08
28
10
ENDCHAR
STARTCHAR scedilla
ENCODING 351
SWIDTH 350 0
DWIDTH 7 0
BBX 6 12 0 -4
BITMAP
74
8C
84
60
18
84
C4
B8
10
08
28
10
ENDCHAR
STARTCHAR Scaron
ENCODING 352
SWIDTH 400 0
DWIDTH 8 0
BBX 7 14 0 0
BITMAP
28
10
00
3A
46
82
80
40
38
04
02
82
C4
B8
ENDCHAR
STARTCHAR scaron
ENCODING 353
SWIDTH 350 0
DWIDTH 7 0
BBX 6 11 0 0
BITMAP
48
30
00
74
8C
84
60
18
84
C4
B8
ENDCHAR
STARTCHAR Tcommaaccent
ENCODING 354
SWIDTH 400 0
DWIDTH 8 0
BBX 7 15 0 -4
BITMAP
FE
92
10
10
10
10
10
10
10
10
38
10
08
28
10
ENDCHAR
STARTCHAR tcommaaccent
ENCODING 355
SWIDTH 200 0
DWIDTH 4 0
BBX 4 16 0 -4
BITMAP
40
40
40
40
E0
40
40
40
40
40
40
30
20
10
50
20
ENDCHAR
STARTCHAR Tcaron
ENCODING 356
SWIDTH 400 0
DWIDTH 8 0
BBX 7 14 0 0
BITMAP
28
10
00
FE
92
10
10
10
10
10
10
10
10
38
ENDCHAR
STARTCHAR tcaron
ENCODING 357
SWIDTH 200 0
DWIDTH 4 0
BBX 5 12 0 0
BITMAP
58
58
48
50
E0
40
40
40
40
40
40
30
ENDCHAR
STARTCHAR Tbar
ENCODING 358
SWIDTH 400 0
DWIDTH 8 0
BBX 7 11 0 0
BITMAP
FE
92
10
10
10
7C
10
10
10
10
38
ENDCHAR
STARTCHAR tbar
ENCODING 359
SWIDTH 200 0
DWIDTH 4 0
BBX 4 12 0 0
BITMAP
40
40
40
40
E0
40
40
E0
40
40
40
30
ENDCHAR
STARTCHAR Utilde
ENCODING 360
SWIDTH 550 0
DWIDTH 11 0
BBX 10 14 0 0
BITMAP
1900
2600
0000
E1C0
4080
4080
4080
4080
4080
4080
4080
2100
3300
0C00
ENDCHAR
STARTCHAR utilde
ENCODING 361
SWIDTH 450 0
DWIDTH 9 0
BBX 8 11 0 0
BITMAP
32
4C
00
C6
42
42
42
42
42
26
1B
ENDCHAR
STARTCHAR Umacron
ENCODING 362
SWIDTH 550 0
DWIDTH 11 0
BBX 10 13 0 0
BITMAP
3F00
0000
E1C0
4080
4080
4080
4080
4080
4080
4080
2100
3300
0C00
ENDCHAR
STARTCHAR umacron
ENCODING 363
SWIDTH 450 0
DWIDTH 9 0
BBX 8 10 0 0
BITMAP
7C
00
C6
42
42
42
42
42
26
1B
ENDCHAR
STARTCHAR Ubreve
ENCODING 364
SWIDTH 550 0
DWIDTH 11 0
BBX 10 14 0 0
BITMAP
2100
1E00
0000
E1C0
4080
4080
4080
4080
4080
4080
4080
2100
3300
0C00
ENDCHAR
STARTCHAR ubreve
ENCODING 365
SWIDTH 450 0
DWIDTH 9 0
BBX 8 11 0 0
BITMAP
44
38
00
C6
42
42
42
42
42
26
1B
ENDCHAR
STARTCHAR Uring
ENCODING 366
SWIDTH 550 0
DWIDTH 11 0
BBX 10 14 0 0
BITMAP
0C00
1200
0C00
E1C0
4080
4080
4080
4080
4080
4080
4080
2100
3300
0C00
ENDCHAR
STARTCHAR uring
ENCODING 367
SWIDTH 450 0
DWIDTH 9 0
BBX 8 12 0 0
BITMAP
38
44
38
00
C6
42
42
42
42
42
26
1B
ENDCHAR
STARTCHAR Uhungarumlaut
ENCODING 368
SWIDTH 550 0
DWIDTH 11 0
BBX 10 14 0 0
BITMAP
0A00
1400
0000
E1C0
4080
4080
4080
4080
4080
4080
4080
2100
3300
0C00
ENDCHAR
STARTCHAR uhungarumlaut
ENCODING 369
SWIDTH 450 0
DWIDTH 9 0
BBX 8 11 0 0
BITMAP
14
28
00
C6
42
42
42
42
42
26
1B
ENDCHAR
STARTCHAR Uogonek
ENCODING 370
SWIDTH 550 0
DWIDTH 11 0
BBX 10 15 0 -4
BITMAP
E1C0
4080
4080
4080
4080
4080
4080
4080
2100
3300
0C00
0400
0800
0A00
0400
ENDCHAR
STARTCHAR uogonek
ENCODING 371
SWIDTH 450 0
DWIDTH 9 0
BBX 8 12 0 -4
BITMAP
C6
42
42
42
42
42
26
1B
08
10
14
08
ENDCHAR
STARTCHAR Wcircumflex
ENCODING 372
SWIDTH 700 0
DWIDTH 14 0
BBX 13 14 0 0
BITMAP
0200
0500
0000
E038
4010
4010
2220
2220
2220
1540
1540
1540
0880
0880
ENDCHAR
STARTCHAR wcircumflex
ENCODING 373
SWIDTH 500 0
DWIDTH 10 0
BBX 9 11 0 0
BITMAP
0800
1400
0000
E380
4100
4100
2A00
2A00
2A00
1400
1400
ENDCHAR
STARTCHAR Ycircumflex
ENCODING 374
SWIDTH 500 0
DWIDTH 10 0
BBX 9 14 0 0
BITMAP
0800
1400
0000
E380
4100
2200
2200
1400
0800
0800
0800
0800
0800
1C00
ENDCHAR
STARTCHAR ycircumflex
ENCODING 375
SWIDTH 400 0
DWIDTH 8 0
BBX 7 15 0 -4
BITMAP
10
28
00
EE
44
44
28
28
28
10
10
20
20
40
80
ENDCHAR
STARTCHAR Ydieresis
ENCODING 376
SWIDTH 500 0
DWIDTH 10 0
BBX 9 13 0 0
BITMAP
3600
0000
E380
4100
2200
2200
1400
0800
0800
0800
0800
0800
1C00
ENDCHAR
STARTCHAR Zacute
ENCODING 377
SWIDTH 400 0
DWIDTH 8 0
BBX 7 14 0 0
BITMAP
08
10
00
FE
82
04
08
08
10
20
20
40
82
FE
ENDCHAR
STARTCHAR zacute
ENCODING 378
SWIDTH 350 0
DWIDTH 7 0
BBX 6 11 0 0
BITMAP
10
20
00
FC
84
08
10
20
40
84
FC
ENDCHAR
STARTCHAR Zdotaccent
ENCODING 379
SWIDTH 400 0
DWIDTH 8 0
BBX 7 13 0 0
BITMAP
18
00
FE
82
04
08
08
10
20
20
40
82
FE
ENDCHAR
STARTCHAR zdotaccent
ENCODING 380
SWIDTH 350 0
DWIDTH 7 0
BBX 6 10 0 0
BITMAP
30
00
FC
84
08
10
20
40
84
FC
ENDCHAR
STARTCHAR Zcaron
ENCODING 381
SWIDTH 400 0
DWIDTH 8 0
BBX 7 14 0 0
BITMAP
28
10
00
FE
82
04
08
08
10
20
20
40
82
FE
ENDCHAR
STARTCHAR zcaron
ENCODING 382
SWIDTH 350 0
DWIDTH 7 0
BBX 6 11 0 0
BITMAP
48
30
00
FC
84
08
10
20
40
84
FC
ENDCHAR
STARTCHAR longs
ENCODING 383
SWIDTH 200 0
DWIDTH 4 0
BBX 5 12 0 0
BITMAP
18
20
40
40
C0
40
40
40
40
40
40
E0
ENDCHAR
STARTCHAR florin
ENCODING 402
SWIDTH 200 0
DWIDTH 4 0
BBX 8 16 -3 -4
BITMAP
03
04
08
08
1C
08
08
08
08
08
08
08
10
10
20
C0
ENDCHAR
STARTCHAR uni0237
ENCODING 567
SWIDTH 150 0
DWIDTH 3 0
BBX 4 12 -2 -4
BITMAP
30
10
10
10
10
10
10
10
10
10
20
C0
ENDCHAR
STARTCHAR uni0250
ENCODING 592
SWIDTH 400 0
DWIDTH 8 0
BBX 7 8 0 0
BITMAP
DC
62
42
44
78
40
44
38
ENDCHAR
STARTCHAR uni0251
ENCODING 593
SWIDTH 400 0
DWIDTH 8 0
BBX 7 8 0 0
BITMAP
3C
44
84
84
84
84
8C
76
ENDCHAR
STARTCHAR uni0252
ENCODING 594
SWIDTH 400 0
DWIDTH 8 0
BBX 7 8 0 0
BITMAP
DC
62
42
42
42
42
44
78
ENDCHAR
STARTCHAR uni0253
ENCODING 595
SWIDTH 450 0
DWIDTH 9 0
BBX 8 12 0 0
BITMAP
1C
20
40
40
5C
62
41
41
41
41
62
DC
ENDCHAR
STARTCHAR uni0254
ENCODING 596
SWIDTH 400 0
DWIDTH 8 0
BBX 7 8 0 0
BITMAP
B8
C4
82
02
02
82
44
38
ENDCHAR
STARTCHAR uni0255
ENCODING 597
SWIDTH 400 0
DWIDTH 8 0
BBX 7 10 0 -2
BITMAP
3A
46
82
80
80
84
4A
3C
10
20
ENDCHAR
STARTCHAR uni0256
ENCODING 598
SWIDTH 450 0
DWIDTH 9 0
BBX 10 16 0 -4
BITMAP
0600
0200
0200
0200
3A00
4600
8200
8200
8200
8200
4600
3A00
0200
0200
0100
00C0
ENDCHAR
STARTCHAR uni0257
ENCODING 599
SWIDTH 450 0
DWIDTH 9 0
BBX 10 12 0 0
BITMAP
00C0
0100
0200
0200
3A00
4600
8200
8200
8200
8200
4600
3B00
ENDCHAR
STARTCHAR uni0258
ENCODING 600
SWIDTH 400 0
DWIDTH 8 0
BBX 7 8 0 0
BITMAP
38
44
82
FE
02
02
44
38
ENDCHAR
STARTCHAR uni0259
ENCODING 601
SWIDTH 400 0
DWIDTH 8 0
BBX 7 8 0 0
BITMAP
38
44
02
02
FE
82
44
38
ENDCHAR
STARTCHAR uni025A
ENCODING 602
SWIDTH 550 0
DWIDTH 11 0
BBX 10 8 0 0
BITMAP
3800
4400
0200
0280
FF80
8280
4440
3800
ENDCHAR
STARTCHAR uni025B
ENCODING 603
SWIDTH 350 0
DWIDTH 7 0
BBX 6 8 0 0
BITMAP
78
84
80
78
80
80
84
78
ENDCHAR
STARTCHAR uni025C
ENCODING 604
SWIDTH 350 0
DWIDTH 7 0
BBX 6 8 0 0
BITMAP
78
84
04
78
04
04
84
78
ENDCHAR
STARTCHAR uni025D
ENCODING 605
SWIDTH 500 0
DWIDTH 10 0
BBX 9 8 0 0
BITMAP
7800
8500
0700
7900
0480
0400
8400
7800
ENDCHAR
STARTCHAR uni025E
ENCODING 606
SWIDTH 450 0
DWIDTH 9 0
BBX 8 8 0 0
BITMAP
1E
21
41
9E
81
41
21
1E
ENDCHAR
STARTCHAR uni025F
ENCODING 607
SWIDTH 200 0
DWIDTH 4 0
BBX 5 12 -2 -4
BITMAP
38
10
10
10
10
10
10
38
10
10
20
C0
ENDCHAR
STARTCHAR uni0260
ENCODING 608
SWIDTH 450 0
DWIDTH 9 0
BBX 10 16 0 -4
BITMAP
00C0
0100
0200
0200
3A00
4600
8200
8200
8200
8200
4600
3A00
0200
0200
0400
3800
ENDCHAR
STARTCHAR uni0261
ENCODING 609
SWIDTH 450 0
DWIDTH 9 0
BBX 8 12 0 -4
BITMAP
1B
26
42
83
82
86
4A
32
22
42
44
38
ENDCHAR
STARTCHAR uni0262
ENCODING 610
SWIDTH 400 0
DWIDTH 8 0
BBX 7 8 0 0
BITMAP
3A
46
80
8E
82
82
46
3A
ENDCHAR
STARTCHAR uni0263
ENCODING 611
SWIDTH 400 0
DWIDTH 8 0
BBX 7 10 0 -2
BITMAP
EE
44
44
28
28
28
10
10
28
10
ENDCHAR
STARTCHAR uni0264
ENCODING 612
SWIDTH 400 0
DWIDTH 8 0
BBX 7 8 0 0
BITMAP
6C
92
28
28
28
28
28
10
ENDCHAR
STARTCHAR uni0265
ENCODING 613
SWIDTH 450 0
DWIDTH 9 0
BBX 8 12 0 -4
BITMAP
E7
42
42
42
42
42
26
1A
02
02
02
03
ENDCHAR
STARTCHAR uni0266
ENCODING 614
SWIDTH 450 0
DWIDTH 9 0
BBX 8 12 0 0
BITMAP
1C
20
40
40
58
64
42
42
42
42
42
E7
ENDCHAR
STARTCHAR uni0267
ENCODING 615
SWIDTH 450 0
DWIDTH 9 0
BBX 7 16 0 -4
BITMAP
1C
20
40
40
58
64
42
42
42
42
42
E2
02
02
04
38
ENDCHAR
STARTCHAR uni0268
ENCODING 616
SWIDTH 200 0
DWIDTH 4 0
BBX 3 12 0 0
BITMAP
40
40
00
00
C0
40
40
E0
40
40
40
E0
ENDCHAR
STARTCHAR uni0269
ENCODING 617
SWIDTH 200 0
DWIDTH 4 0
BBX 3 8 0 0
BITMAP
C0
40
40
40
40
40
40
60
ENDCHAR
STARTCHAR uni026A
ENCODING 618
SWIDTH 200 0
DWIDTH 4 0
BBX 3 8 0 0
BITMAP
E0
40
40
40
40
40
40
E0
ENDCHAR
STARTCHAR uni026B
ENCODING 619
SWIDTH 200 0
DWIDTH 4 0
BBX 5 12 -1 0
BITMAP
60
20
20
20
20
68
B0
20
20
20
20
70
ENDCHAR
STARTCHAR uni026C
ENCODING 620
SWIDTH 200 0
DWIDTH 4 0
BBX 4 12 -1 0
BITMAP
60
20
20
20
20
60
A0
70
20
20
20
70
ENDCHAR
STARTCHAR uni026D
ENCODING 621
SWIDTH 200 0
DWIDTH 4 0
BBX 5 16 0 -4
BITMAP
C0
40
40
40
40
40
40
40
40
40
40
40
40
40
20
18
ENDCHAR
STARTCHAR uni026E
ENCODING 622
SWIDTH 450 0
DWIDTH 9 0
BBX 8 16 0 -4
BITMAP
C0
40
40
40
7F
42
44
48
5C
42
41
E1
01
01
02
1C
ENDCHAR
STARTCHAR uni026F
ENCODING 623
SWIDTH 700 0
DWIDTH 14 0
BBX 13 8 0 0
BITMAP
C630
4210
4210
4210
4210
4210
2530
18D8
ENDCHAR
STARTCHAR uni0270
ENCODING 624
SWIDTH 700 0
DWIDTH 14 0
BBX 13 12 0 -4
BITMAP
C630
4210
4210
4210
4210
4210
2530
18D0
0010
0010
0010
0018
ENDCHAR
STARTCHAR uni0271
ENCODING 625
SWIDTH 650 0
DWIDTH 13 0
BBX 12 12 0 -4
BITMAP
D8C0
6520
4210
4210
4210
4210
4210
E710
0010
0010
0020
01C0
ENDCHAR
STARTCHAR uni0272
ENCODING 626
SWIDTH 450 0
DWIDTH 9 0
BBX 10 12 -2 -4
BITMAP
3600
1900
1080
1080
1080
1080
1080
11C0
1000
1000
2000
C000
ENDCHAR
STARTCHAR uni0273
ENCODING 627
SWIDTH 400 0
DWIDTH 8 0
BBX 10 12 0 -4
BITMAP
D800
6400
4200
4200
4200
4200
4200
E200
0200
0200
0100
00C0
ENDCHAR
STARTCHAR uni0274
ENCODING 628
SWIDTH 450 0
DWIDTH 9 0
BBX 8 8 0 0
BITMAP
C7
62
52
52
4A
4A
46
E2
ENDCHAR
STARTCHAR uni0275
ENCODING 629
SWIDTH 400 0
DWIDTH 8 0
BBX 7 8 0 0
BITMAP
38
44
82
FE
82
82
44
38
ENDCHAR
STARTCHAR uni0276
ENCODING 630
SWIDTH 550 0
DWIDTH 11 0
BBX 10 8 0 0
BITMAP
3FC0
4840
8900
8F00
8900
8800
4840
3FC0
ENDCHAR
STARTCHAR uni0277
ENCODING 631
SWIDTH 500 0
DWIDTH 10 0
BBX 9 8 0 0
BITMAP
1C00
2200
4100
8880
8880
8880
8880
7700
ENDCHAR
STARTCHAR uni0278
ENCODING 632
SWIDTH 400 0
DWIDTH 8 0
BBX 7 12 0 -2
BITMAP
38
10
38
54
92
92
92
92
54
38
10
38
ENDCHAR
STARTCHAR uni0279
ENCODING 633
SWIDTH 400 0
DWIDTH 8 0
BBX 7 8 0 0
BITMAP
0E
04
04
04
04
04
8C
76
ENDCHAR
STARTCHAR uni027A
ENCODING 634
SWIDTH 400 0
DWIDTH 8 0
BBX 7 12 0 0
BITMAP
0E
04
04
04
04
04
04
04
04
04
8C
76
ENDCHAR
STARTCHAR uni027B
ENCODING 635
SWIDTH 400 0
DWIDTH 8 0
BBX 9 12 0 -4
BITMAP
0E00
0400
0400
0400
0400
0400
8C00
7400
0400
0400
0200
0180
ENDCHAR
STARTCHAR uni027C
ENCODING 636
SWIDTH 400 0
DWIDTH 8 0
BBX 7 12 0 -4
BITMAP
DC
62
40
40
40
40
40
40
40
40
40
E0
ENDCHAR
STARTCHAR uni027D
ENCODING 637
SWIDTH 400 0
DWIDTH 8 0
BBX 7 12 0 -4
BITMAP
DC
62
40
40
40
40
40
40
40
40
20
18
ENDCHAR
STARTCHAR uni027E
ENCODING 638
SWIDTH 400 0
DWIDTH 8 0
BBX 7 8 0 0
BITMAP
1C
22
40
40
40
40
40
E0
ENDCHAR
STARTCHAR uni027F
ENCODING 639
SWIDTH 400 0
DWIDTH 8 0
BBX 7 8 0 0
BITMAP
70
88
04
04
04
04
04
0E
ENDCHAR
STARTCHAR uni0280
ENCODING 640
SWIDTH 400 0
DWIDTH 8 0
BBX 7 8 0 0
BITMAP
FC
42
42
42
7C
50
48
E6
ENDCHAR
STARTCHAR uni0281
ENCODING 641
SWIDTH 400 0
DWIDTH 8 0
BBX 7 8 0 0
BITMAP
E6
48
50
7C
42
42
42
FC
ENDCHAR
STARTCHAR uni0282
ENCODING 642
SWIDTH 350 0
DWIDTH 7 0
BBX 6 12 0 -4
BITMAP
74
8C
84
60
18
84
C4
B8
80
80
40
38
ENDCHAR
STARTCHAR uni0283
ENCODING 643
SWIDTH 200 0
DWIDTH 4 0
BBX 7 16 -2 -4
BITMAP
06
08
10
10
10
10
10
10
10
10
10
10
10
10
20
C0
ENDCHAR
STARTCHAR uni0284
ENCODING 644
SWIDTH 200 0
DWIDTH 4 0
BBX 7 16 -2 -4
BITMAP
06
08
10
10
10
10
10
10
10
10
10
38
10
10
20
C0
ENDCHAR
STARTCHAR uni0285
ENCODING 645
SWIDTH 300 0
DWIDTH 6 0
BBX 7 12 -2 0
BITMAP
C0
20
10
10
10
10
10
10
10
10
08
06
ENDCHAR
STARTCHAR uni0286
ENCODING 646
SWIDTH 200 0
DWIDTH 4 0
BBX 8 17 -3 -5
BITMAP
03
04
08
08
08
08
08
08
08
08
08
08
08
68
90
68
04
ENDCHAR
STARTCHAR uni0287
ENCODING 647
SWIDTH 200 0
DWIDTH 4 0
BBX 4 12 -1 -4
BITMAP
C0
20
20
20
20
20
20
70
20
20
20
20
ENDCHAR
STARTCHAR uni0288
ENCODING 648
SWIDTH 200 0
DWIDTH 4 0
BBX 5 16 0 -4
BITMAP
40
40
40
40
E0
40
40
40
40
40
40
40
40
40
20
18
ENDCHAR
STARTCHAR uni0289
ENCODING 649
SWIDTH 450 0
DWIDTH 9 0
BBX 8 8 0 0
BITMAP
C6
42
42
FF
42
42
26
1B
ENDCHAR
STARTCHAR uni028A
ENCODING 650
SWIDTH 450 0
DWIDTH 9 0
BBX 8 8 0 0
BITMAP
E7
24
24
42
42
42
24
18
ENDCHAR
STARTCHAR uni028B
ENCODING 651
SWIDTH 400 0
DWIDTH 8 0
BBX 7 8 0 0
BITMAP
C8
44
42
42
42
42
24
18
ENDCHAR
STARTCHAR uni028C
ENCODING 652
SWIDTH 400 0
DWIDTH 8 0
BBX 7 8 0 0
BITMAP
10
10
28
28
28
44
44
EE
ENDCHAR
STARTCHAR uni028D
ENCODING 653
SWIDTH 500 0
DWIDTH 10 0
BBX 9 8 0 0
BITMAP
1400
1400
2A00
2A00
2A00
4100
4100
E380
ENDCHAR
STARTCHAR uni028E
ENCODING 654
SWIDTH 400 0
DWIDTH 8 0
BBX 7 12 0 0
BITMAP
02
04
08
08
10
10
28
28
28
44
44
EE
ENDCHAR
STARTCHAR uni028F
ENCODING 655
SWIDTH 400 0
DWIDTH 8 0
BBX 7 8 0 0
BITMAP
EE
44
28
28
10
10
10
38
ENDCHAR
STARTCHAR uni0290
ENCODING 656
SWIDTH 350 0
DWIDTH 7 0
BBX 9 12 0 -4
BITMAP
FC00
8400
0800
1000
2000
4000
8400
FC00
0400
0400
0200
0180
ENDCHAR
STARTCHAR uni0291
ENCODING 657
SWIDTH 350 0
DWIDTH 7 0
BBX 6 10 0 -2
BITMAP
FC
84
08
10
20
48
94
F8
20
40
ENDCHAR
STARTCHAR uni0292
ENCODING 658
SWIDTH 350 0
DWIDTH 7 0
BBX 6 12 0 -4
BITMAP
FC
84
08
10
20
70
08
04
04
04
88
70
ENDCHAR
STARTCHAR uni0293
ENCODING 659
SWIDTH 350 0
DWIDTH 7 0
BBX 6 14 0 -6
BITMAP
FC
84
08
10
20
70
08
04
04
44
A8
70
10
08
ENDCHAR
STARTCHAR uni0294
ENCODING 660
SWIDTH 400 0
DWIDTH 8 0
BBX 7 11 0 0
BITMAP
38
44
82
02
04
08
10
10
10
10
38
ENDCHAR
STARTCHAR uni0295
ENCODING 661
SWIDTH 400 0
DWIDTH 8 0
BBX 7 11 0 0
BITMAP
38
44
82
80
40
20
10
10
10
10
38
ENDCHAR
STARTCHAR uni0296
ENCODING 662
SWIDTH 400 0
DWIDTH 8 0
BBX 7 11 0 0
BITMAP
38
10
10
10
10
08
04
02
82
44
38
ENDCHAR
STARTCHAR uni0297
ENCODING 663
SWIDTH 400 0
DWIDTH 8 0
BBX 7 12 0 -4
BITMAP
3A
46
82
80
80
80
80
80
80
82
44
38
ENDCHAR
STARTCHAR uni0298
ENCODING 664
SWIDTH 400 0
DWIDTH 8 0
BBX 7 8 0 0
BITMAP
38
44
92
BA
BA
92
44
38
ENDCHAR
STARTCHAR uni0299
ENCODING 665
SWIDTH 400 0
DWIDTH 8 0
BBX 7 8 0 0
BITMAP
FC
42
42
7C
42
42
42
FC
ENDCHAR
STARTCHAR uni029A
ENCODING 666
SWIDTH 450 0
DWIDTH 9 0
BBX 8 8 0 0
BITMAP
78
84
82
79
81
82
84
78
ENDCHAR
STARTCHAR uni029B
ENCODING 667
SWIDTH 400 0
DWIDTH 8 0
BBX 10 12 0 0
BITMAP
00C0
0100
0200
0200
3A00
4600
8000
8E00
8200
8200
4600
3A00
ENDCHAR
STARTCHAR uni029C
ENCODING 668
SWIDTH 450 0
DWIDTH 9 0
BBX 8 8 0 0
BITMAP
E7
42
42
7E
42
42
42
E7
ENDCHAR
STARTCHAR uni029D
ENCODING 669
SWIDTH 150 0
DWIDTH 3 0
BBX 6 17 -3 -5
BITMAP
08
08
00
00
18
08
08
08
08
08
08
08
08
68
90
68
04
ENDCHAR
STARTCHAR uni029E
ENCODING 670
SWIDTH 450 0
DWIDTH 9 0
BBX 8 12 0 -4
BITMAP
E7
42
22
16
0A
12
22
72
02
02
02
03
ENDCHAR
STARTCHAR uni029F
ENCODING 671
SWIDTH 400 0
DWIDTH 8 0
BBX 7 8 0 0
BITMAP
E0
40
40
40
40
40
42
FE
ENDCHAR
STARTCHAR uni02A0
ENCODING 672
SWIDTH 450 0
DWIDTH 9 0
BBX 10 16 0 -4
BITMAP
00C0
0100
0200
0200
3A00
4600
8200
8200
8200
8200
4600
3A00
0200
0200
0200
0700
ENDCHAR
STARTCHAR uni02A1
ENCODING 673
SWIDTH 400 0
DWIDTH 8 0
BBX 7 11 0 0
BITMAP
38
44
82
02
04
08
10
38
10
10
38
ENDCHAR
STARTCHAR uni02A2
ENCODING 674
SWIDTH 400 0
DWIDTH 8 0
BBX 7 11 0 0
BITMAP
38
44
82
80
40
20
10
38
10
10
38
ENDCHAR
STARTCHAR uni02A3
ENCODING 675
SWIDTH 750 0
DWIDTH 15 0
BBX 14 12 0 0
BITMAP
0600
0200
0200
0200
3AFC
4684
8208
8210
8220
8240
4684
3BFC
ENDCHAR
STARTCHAR uni02A4
ENCODING 676
SWIDTH 750 0
DWIDTH 15 0
BBX 14 16 0 -4
BITMAP
0600
0200
0200
0200
3AFC
4684
8208
8210
8220
8270
4608
3B04
0004
0004
0088
0070
ENDCHAR
STARTCHAR uni02A5
ENCODING 677
SWIDTH 750 0
DWIDTH 15 0
BBX 14 14 0 -2
BITMAP
0600
0200
0200
0200
3AFC
4684
8208
8210
8220
8248
4694
3BF8
0020
0040
ENDCHAR
STARTCHAR uni02A6
ENCODING 678
SWIDTH 550 0
DWIDTH 11 0
BBX 10 12 0 0
BITMAP
4000
4000
4000
4000
E740
48C0
4840
4600
4180
4840
4C40
3B80
ENDCHAR
STARTCHAR uni02A7
ENCODING 679
SWIDTH 350 0
DWIDTH 7 0
BBX 8 16 0 -4
BITMAP
43
44
48
48
E8
48
48
48
48
48
48
38
08
08
10
60
ENDCHAR
STARTCHAR uni02A8
ENCODING 680
SWIDTH 600 0
DWIDTH 12 0
BBX 11 14 0 -2
BITMAP
4000
4000
4000
4000
E3A0
4460
4820
4800
4800
4840
4CA0
33C0
0100
0200
ENDCHAR
STARTCHAR uni02A9
ENCODING 681
SWIDTH 600 0
DWIDTH 12 0
BBX 11 16 0 -4
BITMAP
1800
2000
4000
4000
FD80
4640
4420
4420
4420
4420
4420
EE20
0020
0020
0040
0380
ENDCHAR
STARTCHAR uni02AA
ENCODING 682
SWIDTH 500 0
DWIDTH 10 0
BBX 9 12 0 0
BITMAP
C000
4000
4000
4000
4E80
5180
5080
4C00
4300
5080
5880
F700
ENDCHAR
STARTCHAR uni02AB
ENCODING 683
SWIDTH 500 0
DWIDTH 10 0
BBX 9 12 0 0
BITMAP
C000
4000
4000
4000
5F80
5080
4100
4200
4400
4800
5080
FF80
ENDCHAR
STARTCHAR uni02AC
ENCODING 684
SWIDTH 500 0
DWIDTH 10 0
BBX 9 11 0 0
BITMAP
E380
4900
2A00
1400
1400
0000
E380
4900
2A00
1400
1400
ENDCHAR
STARTCHAR uni02AD
ENCODING 685
SWIDTH 500 0
DWIDTH 10 0
BBX 9 11 0 0
BITMAP
FF80
8080
8080
8080
8080
0000
FF80
8080
8080
8080
8080
ENDCHAR
STARTCHAR uni02AE
ENCODING 686
SWIDTH 450 0
DWIDTH 9 0
BBX 9 12 -1 -4
BITMAP
C380
2100
2100
2100
2100
2100
1300
0D00
0100
0100
0100
0180
ENDCHAR
STARTCHAR uni02AF
ENCODING 687
SWIDTH 450 0
DWIDTH 9 0
BBX 11 12 -1 -4
BITMAP
C380
2100
2100
2100
2100
2100
1300
0D00
0100
0100
0080
0060
ENDCHAR
STARTCHAR circumflex
ENCODING 710
SWIDTH 300 0
DWIDTH 6 0
BBX 5 3 0 9
BITMAP
20
50
88
ENDCHAR
STARTCHAR caron
ENCODING 711
SWIDTH 300 0
DWIDTH 6 0
BBX 5 3 0 9
BITMAP
88
50
20
ENDCHAR
STARTCHAR uni02C8
ENCODING 712
SWIDTH 200 0
DWIDTH 4 0
BBX 1 3 1 9
BITMAP
80
80
80
ENDCHAR
STARTCHAR macron
ENCODING 713
SWIDTH 300 0
DWIDTH 6 0
BBX 5 1 0 11
BITMAP
F8
ENDCHAR
STARTCHAR uni02CA
ENCODING 714
SWIDTH 150 0
DWIDTH 3 0
BBX 2 2 0 10
BITMAP
40
80
ENDCHAR
STARTCHAR uni02CB
ENCODING 715
SWIDTH 150 0
DWIDTH 3 0
BBX 2 2 0 10
BITMAP
80
40
ENDCHAR
STARTCHAR uni02D2
ENCODING 722
SWIDTH 150 0
DWIDTH 3 0
BBX 2 4 0 8
BITMAP
80
40
40
80
ENDCHAR
STARTCHAR uni02D3
ENCODING 723
SWIDTH 150 0
DWIDTH 3 0
BBX 2 4 0 8
BITMAP
40
80
80
40
ENDCHAR
STARTCHAR uni02D4
ENCODING 724
SWIDTH 200 0
DWIDTH 4 0
BBX 3 3 0 9
BITMAP
40
40
E0
ENDCHAR
STARTCHAR uni02D5
ENCODING 725
SWIDTH 200 0
DWIDTH 4 0
BBX 3 3 0 9
BITMAP
E0
40
40
ENDCHAR
STARTCHAR uni02D6
ENCODING 726
SWIDTH 200 0
DWIDTH 4 0
BBX 3 3 0 9
BITMAP
40
E0
40
ENDCHAR
STARTCHAR uni02D7
ENCODING 727
SWIDTH 200 0
DWIDTH 4 0
BBX 3 1 0 10
BITMAP
E0
ENDCHAR
STARTCHAR breve
ENCODING 728
SWIDTH 300 0
DWIDTH 6 0
BBX 5 2 0 10
BITMAP
88
70
ENDCHAR
STARTCHAR dotaccent
ENCODING 729
SWIDTH 250 0
DWIDTH 5 0
BBX 2 1 1 11
BITMAP
C0
ENDCHAR
STARTCHAR ring
ENCODING 730
SWIDTH 300 0
DWIDTH 6 0
BBX 5 3 0 9
BITMAP
70
88
70
ENDCHAR
STARTCHAR ogonek
ENCODING 731
SWIDTH 300 0
DWIDTH 6 0
BBX 3 4 1 -4
BITMAP
40
80
A0
40
ENDCHAR
STARTCHAR tilde
ENCODING 732
SWIDTH 350 0
DWIDTH 7 0
BBX 6 2 0 10
BITMAP
64
98
ENDCHAR
STARTCHAR hungarumlaut
ENCODING 733
SWIDTH 350 0
DWIDTH 7 0
BBX 6 3 0 9
BITMAP
24
48
90
ENDCHAR
STARTCHAR uni0300
ENCODING 768
SWIDTH 0 0
DWIDTH 0 0
BBX 2 2 -6 10
BITMAP
80
40
ENDCHAR
STARTCHAR uni0301
ENCODING 769
SWIDTH 0 0
DWIDTH 0 0
BBX 2 2 -5 10
BITMAP
40
80
ENDCHAR
STARTCHAR uni0302
ENCODING 770
SWIDTH 0 0
DWIDTH 0 0
BBX 3 2 -6 10
BITMAP
40
A0
ENDCHAR
STARTCHAR uni0303
ENCODING 771
SWIDTH 0 0
DWIDTH 0 0
BBX 5 2 -7 10
BITMAP
68
B0
ENDCHAR
STARTCHAR uni0304
ENCODING 772
SWIDTH 0 0
DWIDTH 0 0
BBX 5 1 -7 11
BITMAP
F8
ENDCHAR
STARTCHAR uni0305
ENCODING 773
SWIDTH 0 0
DWIDTH 0 0
BBX 9 1 -9 11
BITMAP
FF80
ENDCHAR
STARTCHAR uni0306
ENCODING 774
SWIDTH 0 0
DWIDTH 0 0
BBX 5 2 -7 10
BITMAP
88
70
ENDCHAR
STARTCHAR uni0307
ENCODING 775
SWIDTH 0 0
DWIDTH 0 0
BBX 2 1 -6 11
BITMAP
C0
ENDCHAR
STARTCHAR uni0308
ENCODING 776
SWIDTH 0 0
DWIDTH 0 0
BBX 5 1 -7 11
BITMAP
D8
ENDCHAR
STARTCHAR uni030A
ENCODING 778
SWIDTH 0 0
DWIDTH 0 0
BBX 5 3 -7 10
BITMAP
70
88
70
ENDCHAR
STARTCHAR uni030B
ENCODING 779
SWIDTH 0 0
DWIDTH 0 0
BBX 4 2 -6 10
BITMAP
50
A0
ENDCHAR
STARTCHAR uni030C
ENCODING 780
SWIDTH 0 0
DWIDTH 0 0
BBX 3 2 -6 10
BITMAP
A0
40
ENDCHAR
STARTCHAR uni0370
ENCODING 880
SWIDTH 400 0
DWIDTH 8 0
BBX 7 11 0 0
BITMAP
E0
40
40
40
40
7E
40
40
40
40
E0
ENDCHAR
STARTCHAR uni0371
ENCODING 881
SWIDTH 350 0
DWIDTH 7 0
BBX 6 8 0 0
BITMAP
80
40
40
7C
40
40
40
E0
ENDCHAR
STARTCHAR uni0372
ENCODING 882
SWIDTH 400 0
DWIDTH 8 0
BBX 7 15 0 -4
BITMAP
FE
92
10
10
10
10
10
10
10
10
10
10
10
10
10
ENDCHAR
STARTCHAR uni0373
ENCODING 883
SWIDTH 400 0
DWIDTH 8 0
BBX 7 15 0 -4
BITMAP
7E
92
10
10
10
10
10
10
10
10
10
10
10
10
10
ENDCHAR
STARTCHAR uni0374
ENCODING 884
SWIDTH 150 0
DWIDTH 3 0
BBX 2 4 0 8
BITMAP
40
40
80
80
ENDCHAR
STARTCHAR uni0375
ENCODING 885
SWIDTH 150 0
DWIDTH 3 0
BBX 2 4 0 -1
BITMAP
40
40
80
80
ENDCHAR
STARTCHAR uni0376
ENCODING 886
SWIDTH 500 0
DWIDTH 10 0
BBX 9 11 0 0
BITMAP
E180
4300
4300
4500
4500
4900
4900
5100
5100
6100
4380
ENDCHAR
STARTCHAR uni0377
ENCODING 887
SWIDTH 450 0
DWIDTH 9 0
BBX 8 8 0 0
BITMAP
E3
46
4A
4A
52
52
62
47
ENDCHAR
STARTCHAR uni037A
ENCODING 890
SWIDTH 200 0
DWIDTH 4 0
BBX 3 4 0 -2
BITMAP
C0
40
40
20
ENDCHAR
STARTCHAR uni037B
ENCODING 891
SWIDTH 400 0
DWIDTH 8 0
BBX 7 8 0 0
BITMAP
B8
C4
82
02
02
82
44
38
ENDCHAR
STARTCHAR uni037C
ENCODING 892
SWIDTH 400 0
DWIDTH 8 0
BBX 7 8 0 0
BITMAP
3A
46
82
90
90
82
44
38
ENDCHAR
STARTCHAR uni037D
ENCODING 893
SWIDTH 400 0
DWIDTH 8 0
BBX 7 8 0 0
BITMAP
B8
C4
82
12
12
82
44
38
ENDCHAR
STARTCHAR uni037E
ENCODING 894
SWIDTH 150 0
DWIDTH 3 0
BBX 2 8 0 -1
BITMAP
40
40
00
00
00
40
40
80
ENDCHAR
STARTCHAR tonos
ENCODING 900
SWIDTH 200 0
DWIDTH 4 0
BBX 3 3 0 9
BITMAP
20
40
80
ENDCHAR
STARTCHAR dieresistonos
ENCODING 901
SWIDTH 300 0
DWIDTH 6 0
BBX 5 4 0 9
BITMAP
10
20
00
D8
ENDCHAR
STARTCHAR Alphatonos
ENCODING 902
SWIDTH 500 0
DWIDTH 10 0
BBX 9 11 0 0
BITMAP
5800
8800
1400
1400
1400
2200
3E00
2200
4100
4100
E380
ENDCHAR
STARTCHAR anoteleia
ENCODING 903
SWIDTH 100 0
DWIDTH 2 0
BBX 1 2 0 5
BITMAP
80
80
ENDCHAR
STARTCHAR Epsilontonos
ENCODING 904
SWIDTH 600 0
DWIDTH 12 0
BBX 11 11 0 0
BITMAP
5FE0
8820
0800
0800
0880
0F80
0880
0800
0800
0820
1FE0
ENDCHAR
STARTCHAR Etatonos
ENCODING 905
SWIDTH 650 0
DWIDTH 13 0
BBX 12 11 0 0
BITMAP
5C70
8820
0820
0820
0820
0FE0
0820
0820
0820
0820
1C70
ENDCHAR
STARTCHAR Iotatonos
ENCODING 906
SWIDTH 350 0
DWIDTH 7 0
BBX 6 11 0 0
BITMAP
5C
88
08
08
08
08
08
08
08
08
1C
ENDCHAR
STARTCHAR Omicrontonos
ENCODING 908
SWIDTH 600 0
DWIDTH 12 0
BBX 11 11 0 0
BITMAP
4700
98C0
1040
2020
2020
2020
2020
2020
1040
18C0
0700
ENDCHAR
STARTCHAR Upsilontonos
ENCODING 910
SWIDTH 650 0
DWIDTH 13 0
BBX 12 11 0 0
BITMAP
5C70
8820
0440
0440
0280
0100
0100
0100
0100
0100
0380
ENDCHAR
STARTCHAR Omegatonos
ENCODING 911
SWIDTH 650 0
DWIDTH 13 0
BBX 12 11 0 0
BITMAP
4780
9860
1020
2010
2010
2010
1020
1860
0480
2490
3CF0
ENDCHAR
STARTCHAR iotadieresistonos
ENCODING 912
SWIDTH 200 0
DWIDTH 4 0
BBX 5 13 -1 0
BITMAP
10
20
00
D8
00
60
20
20
20
20
20
20
10
ENDCHAR
STARTCHAR Alpha
ENCODING 913
SWIDTH 500 0
DWIDTH 10 0
BBX 9 11 0 0
BITMAP
1800
0800
1400
1400
1400
2200
3E00
2200
4100
4100
E380
ENDCHAR
STARTCHAR Beta
ENCODING 914
SWIDTH 450 0
DWIDTH 9 0
BBX 8 11 0 0
BITMAP
FC
42
41
41
42
7C
42
41
41
42
FC
ENDCHAR
STARTCHAR Gamma
ENCODING 915
SWIDTH 450 0
DWIDTH 9 0
BBX 8 11 0 0
BITMAP
FF
41
40
40
40
40
40
40
40
40
E0
ENDCHAR
STARTCHAR Delta
ENCODING 916
SWIDTH 500 0
DWIDTH 10 0
BBX 9 11 0 0
BITMAP
0800
0800
1400
1400
2200
2200
2200
4100
4100
8080
FF80
ENDCHAR
STARTCHAR Epsilon
ENCODING 917
SWIDTH 450 0
DWIDTH 9 0
BBX 8 11 0 0
BITMAP
FF
41
40
40
44
7C
44
40
40
41
FF
ENDCHAR
STARTCHAR Zeta
ENCODING 918
SWIDTH 400 0
DWIDTH 8 0
BBX 7 11 0 0
BITMAP
FE
82
04
08
08
10
20
20
40
82
FE
ENDCHAR
STARTCHAR Eta
ENCODING 919
SWIDTH 500 0
DWIDTH 10 0
BBX 9 11 0 0
BITMAP
E380
4100
4100
4100
4100
7F00
4100
4100
4100
4100
E380
ENDCHAR
STARTCHAR Theta
ENCODING 920
SWIDTH 500 0
DWIDTH 10 0
BBX 9 11 0 0
BITMAP
1C00
6300
4100
8080
A280
BE80
A280
8080
4100
6300
1C00
ENDCHAR
STARTCHAR Iota
ENCODING 921
SWIDTH 200 0
DWIDTH 4 0
BBX 3 11 0 0
BITMAP
E0
40
40
40
40
40
40
40
40
40
E0
ENDCHAR
STARTCHAR Kappa
ENCODING 922
SWIDTH 450 0
DWIDTH 9 0
BBX 8 11 0 0
BITMAP
E7
42
44
48
50
68
44
44
42
42
E7
ENDCHAR
STARTCHAR Lambda
ENCODING 923
SWIDTH 500 0
DWIDTH 10 0
BBX 9 11 0 0
BITMAP
1800
0800
1400
1400
1400
2200
2200
2200
4100
4100
E380
ENDCHAR
STARTCHAR Mu
ENCODING 924
SWIDTH 600 0
DWIDTH 12 0
BBX 11 11 0 0
BITMAP
C060
60C0
5140
4A40
4440
4440
4040
4040
4040
4040
E0E0
ENDCHAR
STARTCHAR Nu
ENCODING 925
SWIDTH 500 0
DWIDTH 10 0
BBX 9 11 0 0
BITMAP
C380
6100
6100
5100
5100
4900
4900
4500
4500
4300
E100
ENDCHAR
STARTCHAR Xi
ENCODING 926
SWIDTH 400 0
DWIDTH 8 0
BBX 7 11 0 0
BITMAP
FE
82
00
00
44
7C
44
00
00
82
FE
ENDCHAR
STARTCHAR Omicron
ENCODING 927
SWIDTH 500 0
DWIDTH 10 0
BBX 9 11 0 0
BITMAP
1C00
6300
4100
8080
8080
8080
8080
8080
4100
6300
1C00
ENDCHAR
STARTCHAR Pi
ENCODING 928
SWIDTH 500 0
DWIDTH 10 0
BBX 9 11 0 0
BITMAP
FF80
4100
4100
4100
4100
4100
4100
4100
4100
4100
E380
ENDCHAR
STARTCHAR Rho
ENCODING 929
SWIDTH 450 0
DWIDTH 9 0
BBX 8 11 0 0
BITMAP
FC
42
41
41
42
7C
40
40
40
40
E0
ENDCHAR
STARTCHAR Sigma
ENCODING 931
SWIDTH 450 0
DWIDTH 9 0
BBX 8 11 0 0
BITMAP
FF
41
20
10
08
04
08
10
20
41
FF
ENDCHAR
STARTCHAR Tau
ENCODING 932
SWIDTH 400 0
DWIDTH 8 0
BBX 7 11 0 0
BITMAP
FE
92
10
10
10
10
10
10
10
10
38
ENDCHAR
STARTCHAR Upsilon
ENCODING 933
SWIDTH 500 0
DWIDTH 10 0
BBX 9 11 0 0
BITMAP
E380
4100
2200
2200
1400
0800
0800
0800
0800
0800
1C00
ENDCHAR
STARTCHAR Phi
ENCODING 934
SWIDTH 400 0
DWIDTH 8 0
BBX 7 11 0 0
BITMAP
38
10
38
54
92
92
92
54
38
10
38
ENDCHAR
STARTCHAR Chi
ENCODING 935
SWIDTH 500 0
DWIDTH 10 0
BBX 9 11 0 0
BITMAP
E380
4100
2200
2200
1400
0800
1400
2200
2200
4100
E380
ENDCHAR
STARTCHAR Psi
ENCODING 936
SWIDTH 500 0
DWIDTH 10 0
BBX 9 11 0 0
BITMAP
9C80
4900
4900
4900
2A00
1C00
0800
0800
0800
0800
1C00
ENDCHAR
STARTCHAR Omega
ENCODING 937
SWIDTH 550 0
DWIDTH 11 0
BBX 10 11 0 0
BITMAP
1E00
6180
4080
8040
8040
8040
4080
6180
1200
9240
F3C0
ENDCHAR
STARTCHAR Iotadieresis
ENCODING 938
SWIDTH 200 0
DWIDTH 4 0
BBX 5 13 -1 0
BITMAP
D8
00
70
20
20
20
20
20
20
20
20
20
70
ENDCHAR
STARTCHAR Upsilondieresis
ENCODING 939
SWIDTH 500 0
DWIDTH 10 0
BBX 9 13 0 0
BITMAP
3600
0000
E380
4100
2200
2200
1400
0800
0800
0800
0800
0800
1C00
ENDCHAR
STARTCHAR alphatonos
ENCODING 940
SWIDTH 450 0
DWIDTH 9 0
BBX 8 11 0 0
BITMAP
08
10
00
31
4A
84
84
84
84
4A
31
ENDCHAR
STARTCHAR epsilontonos
ENCODING 941
SWIDTH 350 0
DWIDTH 7 0
BBX 6 11 0 0
BITMAP
10
20
00
78
84
80
78
80
80
84
78
ENDCHAR
STARTCHAR etatonos
ENCODING 942
SWIDTH 400 0
DWIDTH 8 0
BBX 7 15 0 -4
BITMAP
08
10
00
D8
64
42
42
42
42
42
E2
02
02
02
02
ENDCHAR
STARTCHAR iotatonos
ENCODING 943
SWIDTH 200 0
DWIDTH 4 0
BBX 3 11 0 0
BITMAP
20
40
00
C0
40
40
40
40
40
40
20
ENDCHAR
STARTCHAR upsilondieresistonos
ENCODING 944
SWIDTH 400 0
DWIDTH 8 0
BBX 7 13 0 0
BITMAP
08
10
00
6C
00
C8
44
42
42
42
42
24
18
ENDCHAR
STARTCHAR alpha
ENCODING 945
SWIDTH 450 0
DWIDTH 9 0
BBX 8 8 0 0
BITMAP
31
4A
84
84
84
84
4A
31
ENDCHAR
STARTCHAR beta
ENCODING 946
SWIDTH 400 0
DWIDTH 8 0
BBX 7 15 0 -4
BITMAP
38
44
82
82
84
98
84
82
82
84
98
80
80
80
80
ENDCHAR
STARTCHAR gamma
ENCODING 947
SWIDTH 350 0
DWIDTH 7 0
BBX 6 12 0 -3
BITMAP
04
C8
28
10
10
10
20
20
20
40
40
40
ENDCHAR
STARTCHAR delta
ENCODING 948
SWIDTH 400 0
DWIDTH 8 0
BBX 7 12 0 0
BITMAP
18
24
20
10
38
44
82
82
82
82
44
38
ENDCHAR
STARTCHAR epsilon
ENCODING 949
SWIDTH 350 0
DWIDTH 7 0
BBX 6 8 0 0
BITMAP
78
84
80
78
80
80
84
78
ENDCHAR
STARTCHAR zeta
ENCODING 950
SWIDTH 350 0
DWIDTH 7 0
BBX 6 17 0 -4
BITMAP
80
40
3C
40
40
80
80
80
80
80
80
40
38
04
04
08
30
ENDCHAR
STARTCHAR eta
ENCODING 951
SWIDTH 400 0
DWIDTH 8 0
BBX 7 12 0 -4
BITMAP
D8
64
42
42
42
42
42
E2
02
02
02
02
ENDCHAR
STARTCHAR theta
ENCODING 952
SWIDTH 400 0
DWIDTH 8 0
BBX 7 11 0 0
BITMAP
18
64
42
82
82
FE
82
82
84
4C
30
ENDCHAR
STARTCHAR iota
ENCODING 953
SWIDTH 200 0
DWIDTH 4 0
BBX 3 8 0 0
BITMAP
C0
40
40
40
40
40
40
20
ENDCHAR
STARTCHAR kappa
ENCODING 954
SWIDTH 450 0
DWIDTH 9 0
BBX 8 8 0 0
BITMAP
EE
44
48
50
68
44
42
E7
ENDCHAR
STARTCHAR lambda
ENCODING 955
SWIDTH 400 0
DWIDTH 8 0
BBX 7 12 0 0
BITMAP
80
40
20
20
10
10
28
28
28
44
44
EE
ENDCHAR
STARTCHAR mu
ENCODING 956
SWIDTH 450 0
DWIDTH 9 0
BBX 8 12 0 -4
BITMAP
C6
42
42
42
42
42
66
5B
40
40
40
40
ENDCHAR
STARTCHAR nu
ENCODING 957
SWIDTH 400 0
DWIDTH 8 0
BBX 7 8 0 0
BITMAP
C6
42
42
42
44
44
48
70
ENDCHAR
STARTCHAR xi
ENCODING 958
SWIDTH 350 0
DWIDTH 7 0
BBX 6 17 0 -4
BITMAP
80
40
3C
40
40
38
40
80
80
80
80
40
38
04
04
08
30
ENDCHAR
STARTCHAR omicron
ENCODING 959
SWIDTH 400 0
DWIDTH 8 0
BBX 7 8 0 0
BITMAP
38
44
82
82
82
82
44
38
ENDCHAR
STARTCHAR pi
ENCODING 960
SWIDTH 450 0
DWIDTH 9 0
BBX 8 9 0 0
BITMAP
01
7E
A4
24
24
24
24
44
42
ENDCHAR
STARTCHAR rho
ENCODING 961
SWIDTH 400 0
DWIDTH 8 0
BBX 7 12 0 -4
BITMAP
38
44
82
82
82
82
C4
B8
80
80
80
80
ENDCHAR
STARTCHAR sigma1
ENCODING 962
SWIDTH 400 0
DWIDTH 8 0
BBX 7 12 0 -4
BITMAP
3E
40
80
80
80
80
40
3C
02
02
04
38
ENDCHAR
STARTCHAR sigma
ENCODING 963
SWIDTH 400 0
DWIDTH 8 0
BBX 8 8 0 0
BITMAP
3F
44
82
82
82
82
44
38
ENDCHAR
STARTCHAR tau
ENCODING 964
SWIDTH 400 0
DWIDTH 8 0
BBX 7 8 0 0
BITMAP
7E
90
10
10
10
10
10
08
ENDCHAR
STARTCHAR upsilon
ENCODING 965
SWIDTH 400 0
DWIDTH 8 0
BBX 7 8 0 0
BITMAP
C8
44
42
42
42
42
24
18
ENDCHAR
STARTCHAR phi
ENCODING 966
SWIDTH 400 0
DWIDTH 8 0
BBX 7 12 0 -4
BITMAP
48
94
92
92
92
92
54
38
10
10
10
10
ENDCHAR
STARTCHAR chi
ENCODING 967
SWIDTH 450 0
DWIDTH 9 0
BBX 8 12 0 -4
BITMAP
C1
A2
22
14
18
18
18
18
28
44
45
83
ENDCHAR
STARTCHAR psi
ENCODING 968
SWIDTH 500 0
DWIDTH 10 0
BBX 9 12 0 -4
BITMAP
8880
4900
4900
4900
4900
4900
2A00
1C00
0800
0800
0800
0800
ENDCHAR
STARTCHAR omega
ENCODING 969
SWIDTH 600 0
DWIDTH 12 0
BBX 11 8 0 0
BITMAP
2080
4040
8020
8420
8420
8420
4A40
3180
ENDCHAR
STARTCHAR iotadieresis
ENCODING 970
SWIDTH 200 0
DWIDTH 4 0
BBX 5 10 -1 0
BITMAP
D8
00
60
20
20
20
20
20
20
10
ENDCHAR
STARTCHAR upsilondieresis
ENCODING 971
SWIDTH 400 0
DWIDTH 8 0
BBX 7 10 0 0
BITMAP
6C
00
C8
44
42
42
42
42
24
18
ENDCHAR
STARTCHAR omicrontonos
ENCODING 972
SWIDTH 400 0
DWIDTH 8 0
BBX 7 11 0 0
BITMAP
08
10
00
38
44
82
82
82
82
44
38
ENDCHAR
STARTCHAR upsilontonos
ENCODING 973
SWIDTH 400 0
DWIDTH 8 0
BBX 7 11 0 0
BITMAP
08
10
00
C8
44
42
42
42
42
24
18
ENDCHAR
STARTCHAR omegatonos
ENCODING 974
SWIDTH 600 0
DWIDTH 12 0
BBX 11 11 0 0
BITMAP
0200
0400
0000
2080
4040
8020
8420
8420
8420
4A40
3180
ENDCHAR
STARTCHAR uni0400
ENCODING 1024
SWIDTH 450 0
DWIDTH 9 0
BBX 8 14 0 0
BITMAP
10
08
00
FF
41
40
40
44
7C
44
40
40
41
FF
ENDCHAR
STARTCHAR afii10023
ENCODING 1025
SWIDTH 450 0
DWIDTH 9 0
BBX 8 13 0 0
BITMAP
66
00
FF
41
40
40
44
7C
44
40
40
41
FF
ENDCHAR
STARTCHAR afii10051
ENCODING 1026
SWIDTH 500 0
DWIDTH 10 0
BBX 9 15 0 -4
BITMAP
FE00
9200
1000
1600
1900
1080
1080
1080
1080
1080
3880
0080
0080
0900
0600
ENDCHAR
STARTCHAR afii10052
ENCODING 1027
SWIDTH 450 0
DWIDTH 9 0
BBX 8 14 0 0
BITMAP
08
10
00
FF
41
40
40
40
40
40
40
40
40
E0
ENDCHAR
STARTCHAR afii10053
ENCODING 1028
SWIDTH 450 0
DWIDTH 9 0
BBX 8 11 0 0
BITMAP
1D
63
41
80
84
FC
84
80
41
63
1C
ENDCHAR
STARTCHAR afii10054
ENCODING 1029
SWIDTH 400 0
DWIDTH 8 0
BBX 7 11 0 0
BITMAP
3A
46
82
80
40
38
04
02
82
C4
B8
ENDCHAR
STARTCHAR afii10055
ENCODING 1030
SWIDTH 200 0
DWIDTH 4 0
BBX 3 11 0 0
BITMAP
E0
40
40
40
40
40
40
40
40
40
E0
ENDCHAR
STARTCHAR afii10056
ENCODING 1031
SWIDTH 200 0
DWIDTH 4 0
BBX 5 13 -1 0
BITMAP
D8
00
70
20
20
20
20
20
20
20
20
20
70
ENDCHAR
STARTCHAR afii10057
ENCODING 1032
SWIDTH 450 0
DWIDTH 9 0
BBX 8 11 0 0
BITMAP
07
02
02
02
02
02
02
02
84
CC
30
ENDCHAR
STARTCHAR afii10058
ENCODING 1033
SWIDTH 750 0
DWIDTH 15 0
BBX 14 11 0 0
BITMAP
3F80
1100
1100
1100
1100
11F0
1108
1104
9104
9108
63F0
ENDCHAR
STARTCHAR afii10059
ENCODING 1034
SWIDTH 700 0
DWIDTH 14 0
BBX 13 11 0 0
BITMAP
E700
4200
4200
4200
4200
7FE0
4210
4208
4208
4210
E7E0
ENDCHAR
STARTCHAR afii10060
ENCODING 1035
SWIDTH 550 0
DWIDTH 11 0
BBX 10 11 0 0
BITMAP
FE00
9200
1000
1600
1900
1080
1080
1080
1080
1080
39C0
ENDCHAR
STARTCHAR afii10061
ENCODING 1036
SWIDTH 450 0
DWIDTH 9 0
BBX 8 14 0 0
BITMAP
08
10
00
E7
42
44
48
50
68
44
44
42
42
E7
ENDCHAR
STARTCHAR uni040D
ENCODING 1037
SWIDTH 500 0
DWIDTH 10 0
BBX 9 14 0 0
BITMAP
1000
0800
0000
E180
4300
4300
4500
4500
4900
4900
5100
5100
6100
4380
ENDCHAR
STARTCHAR afii10062
ENCODING 1038
SWIDTH 500 0
DWIDTH 10 0
BBX 9 14 0 0
BITMAP
2200
1C00
0000
E380
4100
2200
2200
1400
0800
0800
1000
1000
A000
4000
ENDCHAR
STARTCHAR afii10145
ENCODING 1039
SWIDTH 500 0
DWIDTH 10 0
BBX 9 13 0 -2
BITMAP
E380
4100
4100
4100
4100
4100
4100
4100
4100
4100
FF80
0800
0800
ENDCHAR
STARTCHAR afii10017
ENCODING 1040
SWIDTH 500 0
DWIDTH 10 0
BBX 9 11 0 0
BITMAP
1800
0800
1400
1400
1400
2200
3E00
2200
4100
4100
E380
ENDCHAR
STARTCHAR afii10018
ENCODING 1041
SWIDTH 450 0
DWIDTH 9 0
BBX 8 11 0 0
BITMAP
FE
42
40
40
40
7C
42
41
41
42
FC
ENDCHAR
STARTCHAR afii10019
ENCODING 1042
SWIDTH 450 0
DWIDTH 9 0
BBX 8 11 0 0
BITMAP
FC
42
41
41
42
7C
42
41
41
42
FC
ENDCHAR
STARTCHAR afii10020
ENCODING 1043
SWIDTH 450 0
DWIDTH 9 0
BBX 8 11 0 0
BITMAP
FF
41
40
40
40
40
40
40
40
40
E0
ENDCHAR
STARTCHAR afii10021
ENCODING 1044
SWIDTH 500 0
DWIDTH 10 0
BBX 9 13 0 -2
BITMAP
3F80
1100
1100
1100
1100
1100
1100
2100
2100
4100
FF80
8080
8080
ENDCHAR
STARTCHAR afii10022
ENCODING 1045
SWIDTH 450 0
DWIDTH 9 0
BBX 8 11 0 0
BITMAP
FF
41
40
40
44
7C
44
40
40
41
FF
ENDCHAR
STARTCHAR afii10024
ENCODING 1046
SWIDTH 700 0
DWIDTH 14 0
BBX 13 11 0 0
BITMAP
E738
4210
2220
1240
0A80
1740
2220
2220
4210
4210
E738
ENDCHAR
STARTCHAR afii10025
ENCODING 1047
SWIDTH 400 0
DWIDTH 8 0
BBX 7 11 0 0
BITMAP
B8
C4
82
02
04
38
04
02
82
44
38
ENDCHAR
STARTCHAR afii10026
ENCODING 1048
SWIDTH 500 0
DWIDTH 10 0
BBX 9 11 0 0
BITMAP
E180
4300
4300
4500
4500
4900
4900
5100
5100
6100
4380
ENDCHAR
STARTCHAR afii10027
ENCODING 1049
SWIDTH 500 0
DWIDTH 10 0
BBX 9 14 0 0
BITMAP
2200
1C00
0000
E180
4300
4300
4500
4500
4900
4900
5100
5100
6100
4380
ENDCHAR
STARTCHAR afii10028
ENCODING 1050
SWIDTH 450 0
DWIDTH 9 0
BBX 8 11 0 0
BITMAP
E7
42
44
48
50
68
44
44
42
42
E7
ENDCHAR
STARTCHAR afii10029
ENCODING 1051
SWIDTH 500 0
DWIDTH 10 0
BBX 9 11 0 0
BITMAP
3F80
1100
1100
1100
1100
1100
1100
1100
9100
9100
6380
ENDCHAR
STARTCHAR afii10030
ENCODING 1052
SWIDTH 600 0
DWIDTH 12 0
BBX 11 11 0 0
BITMAP
C060
60C0
5140
4A40
4440
4440
4040
4040
4040
4040
E0E0
ENDCHAR
STARTCHAR afii10031
ENCODING 1053
SWIDTH 500 0
DWIDTH 10 0
BBX 9 11 0 0
BITMAP
E380
4100
4100
4100
4100
7F00
4100
4100
4100
4100
E380
ENDCHAR
STARTCHAR afii10032
ENCODING 1054
SWIDTH 500 0
DWIDTH 10 0
BBX 9 11 0 0
BITMAP
1C00
6300
4100
8080
8080
8080
8080
8080
4100
6300
1C00
ENDCHAR
STARTCHAR afii10033
ENCODING 1055
SWIDTH 500 0
DWIDTH 10 0
BBX 9 11 0 0
BITMAP
FF80
4100
4100
4100
4100
4100
4100
4100
4100
4100
E380
ENDCHAR
STARTCHAR afii10034
ENCODING 1056
SWIDTH 450 0
DWIDTH 9 0
BBX 8 11 0 0
BITMAP
FC
42
41
41
42
7C
40
40
40
40
E0
ENDCHAR
STARTCHAR afii10035
ENCODING 1057
SWIDTH 450 0
DWIDTH 9 0
BBX 8 11 0 0
BITMAP
1D
63
41
80
80
80
80
80
41
63
1C
ENDCHAR
STARTCHAR afii10036
ENCODING 1058
SWIDTH 400 0
DWIDTH 8 0
BBX 7 11 0 0
BITMAP
FE
92
10
10
10
10
10
10
10
10
38
ENDCHAR
STARTCHAR afii10037
ENCODING 1059
SWIDTH 500 0
DWIDTH 10 0
BBX 9 11 0 0
BITMAP
E380
4100
2200
2200
1400
0800
0800
1000
1000
A000
4000
ENDCHAR
STARTCHAR afii10038
ENCODING 1060
SWIDTH 500 0
DWIDTH 10 0
BBX 9 11 0 0
BITMAP
1C00
0800
3E00
4900
8880
8880
8880
4900
3E00
0800
1C00
ENDCHAR
STARTCHAR afii10039
ENCODING 1061
SWIDTH 500 0
DWIDTH 10 0
BBX 9 11 0 0
BITMAP
E380
4100
2200
2200
1400
0800
1400
2200
2200
4100
E380
ENDCHAR
STARTCHAR afii10040
ENCODING 1062
SWIDTH 500 0
DWIDTH 10 0
BBX 9 13 0 -2
BITMAP
E380
4100
4100
4100
4100
4100
4100
4100
4100
4100
FF80
0080
0080
ENDCHAR
STARTCHAR afii10041
ENCODING 1063
SWIDTH 500 0
DWIDTH 10 0
BBX 9 11 0 0
BITMAP
E380
4100
4100
4100
2300
1D00
0100
0100
0100
0100
0380
ENDCHAR
STARTCHAR afii10042
ENCODING 1064
SWIDTH 600 0
DWIDTH 12 0
BBX 11 11 0 0
BITMAP
EEE0
4440
4440
4440
4440
4440
4440
4440
4440
4440
FFE0
ENDCHAR
STARTCHAR afii10043
ENCODING 1065
SWIDTH 600 0
DWIDTH 12 0
BBX 11 13 0 -2
BITMAP
EEE0
4440
4440
4440
4440
4440
4440
4440
4440
4440
FFE0
0020
0020
ENDCHAR
STARTCHAR afii10044
ENCODING 1066
SWIDTH 550 0
DWIDTH 11 0
BBX 10 11 0 0
BITMAP
F800
9000
1000
1000
1000
1F00
1080
1040
1040
1080
3F00
ENDCHAR
STARTCHAR afii10045
ENCODING 1067
SWIDTH 600 0
DWIDTH 12 0
BBX 11 11 0 0
BITMAP
E0E0
4040
4040
4040
4040
7C40
4240
4140
4140
4240
FCE0
ENDCHAR
STARTCHAR afii10046
ENCODING 1068
SWIDTH 450 0
DWIDTH 9 0
BBX 8 11 0 0
BITMAP
E0
40
40
40
40
7C
42
41
41
42
FC
ENDCHAR
STARTCHAR afii10047
ENCODING 1069
SWIDTH 450 0
DWIDTH 9 0
BBX 8 11 0 0
BITMAP
B8
C6
82
01
21
3F
21
01
82
C6
38
ENDCHAR
STARTCHAR afii10048
ENCODING 1070
SWIDTH 650 0
DWIDTH 13 0
BBX 12 11 0 0
BITMAP
E380
4C60
4820
5010
5010
7010
5010
5010
4820
4C60
E380
ENDCHAR
STARTCHAR afii10049
ENCODING 1071
SWIDTH 450 0
DWIDTH 9 0
BBX 8 11 0 0
BITMAP
3F
42
82
82
42
3E
12
22
42
42
87
ENDCHAR
STARTCHAR afii10065
ENCODING 1072
SWIDTH 400 0
DWIDTH 8 0
BBX 7 8 0 0
BITMAP
38
44
04
3C
44
84
8C
76
ENDCHAR
STARTCHAR afii10066
ENCODING 1073
SWIDTH 400 0
DWIDTH 8 0
BBX 7 12 0 0
BITMAP
30
40
80
80
B8
C4
82
82
82
82
44
38
ENDCHAR
STARTCHAR afii10067
ENCODING 1074
SWIDTH 400 0
DWIDTH 8 0
BBX 7 8 0 0
BITMAP
FC
42
42
7C
42
42
42
FC
ENDCHAR
STARTCHAR afii10068
ENCODING 1075
SWIDTH 350 0
DWIDTH 7 0
BBX 6 8 0 0
BITMAP
FC
44
40
40
40
40
40
E0
ENDCHAR
STARTCHAR afii10069
ENCODING 1076
SWIDTH 400 0
DWIDTH 8 0
BBX 7 10 0 -2
BITMAP
7E
24
24
24
24
44
44
FE
82
82
ENDCHAR
STARTCHAR afii10070
ENCODING 1077
SWIDTH 400 0
DWIDTH 8 0
BBX 7 8 0 0
BITMAP
38
44
82
FE
80
80
44
38
ENDCHAR
STARTCHAR afii10072
ENCODING 1078
SWIDTH 700 0
DWIDTH 14 0
BBX 13 8 0 0
BITMAP
7770
2220
1240
0A80
1740
2220
4210
E738
ENDCHAR
STARTCHAR afii10073
ENCODING 1079
SWIDTH 350 0
DWIDTH 7 0
BBX 6 8 0 0
BITMAP
B8
C4
04
78
04
04
84
78
ENDCHAR
STARTCHAR afii10074
ENCODING 1080
SWIDTH 450 0
DWIDTH 9 0
BBX 8 8 0 0
BITMAP
E3
46
4A
4A
52
52
62
47
ENDCHAR
STARTCHAR afii10075
ENCODING 1081
SWIDTH 450 0
DWIDTH 9 0
BBX 8 11 0 0
BITMAP
42
3C
00
E3
46
4A
4A
52
52
62
47
ENDCHAR
STARTCHAR afii10076
ENCODING 1082
SWIDTH 450 0
DWIDTH 9 0
BBX 8 8 0 0
BITMAP
EE
44
48
50
68
44
42
E7
ENDCHAR
STARTCHAR afii10077
ENCODING 1083
SWIDTH 400 0
DWIDTH 8 0
BBX 7 8 0 0
BITMAP
7E
24
24
24
24
24
24
CE
ENDCHAR
STARTCHAR afii10078
ENCODING 1084
SWIDTH 500 0
DWIDTH 10 0
BBX 9 8 0 0
BITMAP
C180
6300
5500
4900
4900
4100
4100
E380
ENDCHAR
STARTCHAR afii10079
ENCODING 1085
SWIDTH 450 0
DWIDTH 9 0
BBX 8 8 0 0
BITMAP
E7
42
42
7E
42
42
42
E7
ENDCHAR
STARTCHAR afii10080
ENCODING 1086
SWIDTH 400 0
DWIDTH 8 0
BBX 7 8 0 0
BITMAP
38
44
82
82
82
82
44
38
ENDCHAR
STARTCHAR afii10081
ENCODING 1087
SWIDTH 450 0
DWIDTH 9 0
BBX 8 8 0 0
BITMAP
FF
42
42
42
42
42
42
E7
ENDCHAR
STARTCHAR afii10082
ENCODING 1088
SWIDTH 450 0
DWIDTH 9 0
BBX 8 12 0 -4
BITMAP
DC
62
41
41
41
41
62
5C
40
40
40
E0
ENDCHAR
STARTCHAR afii10083
ENCODING 1089
SWIDTH 400 0
DWIDTH 8 0
BBX 7 8 0 0
BITMAP
3A
46
82
80
80
82
44
38
ENDCHAR
STARTCHAR afii10084
ENCODING 1090
SWIDTH 400 0
DWIDTH 8 0
BBX 7 8 0 0
BITMAP
FE
92
10
10
10
10
10
38
ENDCHAR
STARTCHAR afii10085
ENCODING 1091
SWIDTH 400 0
DWIDTH 8 0
BBX 7 12 0 -4
BITMAP
EE
44
44
28
28
28
10
10
20
20
40
80
ENDCHAR
STARTCHAR afii10086
ENCODING 1092
SWIDTH 600 0
DWIDTH 12 0
BBX 11 16 0 -4
BITMAP
0E00
0400
0400
0400
3580
4E40
8420
8420
8420
8420
4E40
3580
0400
0400
0400
0E00
ENDCHAR
STARTCHAR afii10087
ENCODING 1093
SWIDTH 400 0
DWIDTH 8 0
BBX 7 8 0 0
BITMAP
EE
44
28
10
10
28
44
EE
ENDCHAR
STARTCHAR afii10088
ENCODING 1094
SWIDTH 450 0
DWIDTH 9 0
BBX 8 10 0 -2
BITMAP
E7
42
42
42
42
42
42
FF
01
01
ENDCHAR
STARTCHAR afii10089
ENCODING 1095
SWIDTH 450 0
DWIDTH 9 0
BBX 8 8 0 0
BITMAP
E7
42
42
3E
02
02
02
07
ENDCHAR
STARTCHAR afii10090
ENCODING 1096
SWIDTH 600 0
DWIDTH 12 0
BBX 11 8 0 0
BITMAP
EEE0
4440
4440
4440
4440
4440
4440
FFE0
ENDCHAR
STARTCHAR afii10091
ENCODING 1097
SWIDTH 600 0
DWIDTH 12 0
BBX 11 10 0 -2
BITMAP
EEE0
4440
4440
4440
4440
4440
4440
FFE0
0020
0020
ENDCHAR
STARTCHAR afii10092
ENCODING 1098
SWIDTH 500 0
DWIDTH 10 0
BBX 9 8 0 0
BITMAP
F800
9000
1000
1F00
1080
1080
1080
3F00
ENDCHAR
STARTCHAR afii10093
ENCODING 1099
SWIDTH 550 0
DWIDTH 11 0
BBX 10 8 0 0
BITMAP
E1C0
4080
4080
7C80
4280
4280
4280
FDC0
ENDCHAR
STARTCHAR afii10094
ENCODING 1100
SWIDTH 400 0
DWIDTH 8 0
BBX 7 8 0 0
BITMAP
E0
40
40
7C
42
42
42
FC
ENDCHAR
STARTCHAR afii10095
ENCODING 1101
SWIDTH 400 0
DWIDTH 8 0
BBX 7 8 0 0
BITMAP
B8
C4
92
1E
12
82
44
38
ENDCHAR
STARTCHAR afii10096
ENCODING 1102
SWIDTH 550 0
DWIDTH 11 0
BBX 10 8 0 0
BITMAP
E700
4880
5040
7040
5040
5040
4880
E700
ENDCHAR
STARTCHAR afii10097
ENCODING 1103
SWIDTH 400 0
DWIDTH 8 0
BBX 7 8 0 0
BITMAP
7E
84
84
84
7C
14
24
CE
ENDCHAR
STARTCHAR uni0450
ENCODING 1104
SWIDTH 400 0
DWIDTH 8 0
BBX 7 11 0 0
BITMAP
20
10
00
38
44
82
FE
80
80
44
38
ENDCHAR
STARTCHAR afii10071
ENCODING 1105
SWIDTH 400 0
DWIDTH 8 0
BBX 7 10 0 0
BITMAP
28
00
38
44
82
FE
80
80
44
38
ENDCHAR
STARTCHAR afii10099
ENCODING 1106
SWIDTH 400 0
DWIDTH 8 0
BBX 7 16 0 -4
BITMAP
C0
40
E0
40
58
64
42
42
42
42
42
E2
02
02
24
18
ENDCHAR
STARTCHAR afii10100
ENCODING 1107
SWIDTH 350 0
DWIDTH 7 0
BBX 6 11 0 0
BITMAP
10
20
00
FC
44
40
40
40
40
40
E0
ENDCHAR
STARTCHAR afii10101
ENCODING 1108
SWIDTH 400 0
DWIDTH 8 0
BBX 7 8 0 0
BITMAP
3A
46
92
F0
90
82
44
38
ENDCHAR
STARTCHAR afii10102
ENCODING 1109
SWIDTH 350 0
DWIDTH 7 0
BBX 6 8 0 0
BITMAP
74
8C
84
60
18
84
C4
B8
ENDCHAR
STARTCHAR afii10103
ENCODING 1110
SWIDTH 200 0
DWIDTH 4 0
BBX 3 12 0 0
BITMAP
40
40
00
00
C0
40
40
40
40
40
40
E0
ENDCHAR
STARTCHAR afii10104
ENCODING 1111
SWIDTH 200 0
DWIDTH 4 0
BBX 5 11 -1 0
BITMAP
D8
00
00
60
20
20
20
20
20
20
70
ENDCHAR
STARTCHAR afii10105
ENCODING 1112
SWIDTH 150 0
DWIDTH 3 0
BBX 4 16 -2 -4
BITMAP
10
10
00
00
30
10
10
10
10
10
10
10
10
10
20
C0
ENDCHAR
STARTCHAR afii10106
ENCODING 1113
SWIDTH 600 0
DWIDTH 12 0
BBX 11 8 0 0
BITMAP
7E00
2400
2400
27C0
2420
2420
2420
CFC0
ENDCHAR
STARTCHAR afii10107
ENCODING 1114
SWIDTH 600 0
DWIDTH 12 0
BBX 11 8 0 0
BITMAP
EE00
4400
4400
7FC0
4420
4420
4420
EFC0
ENDCHAR
STARTCHAR afii10108
ENCODING 1115
SWIDTH 450 0
DWIDTH 9 0
BBX 8 12 0 0
BITMAP
C0
40
E0
40
58
64
42
42
42
42
42
E7
ENDCHAR
STARTCHAR afii10109
ENCODING 1116
SWIDTH 450 0
DWIDTH 9 0
BBX 8 11 0 0
BITMAP
08
10
00
EE
44
48
50
68
44
42
E7
ENDCHAR
STARTCHAR uni045D
ENCODING 1117
SWIDTH 450 0
DWIDTH 9 0
BBX 8 11 0 0
BITMAP
10
08
00
E3
46
4A
4A
52
52
62
47
ENDCHAR
STARTCHAR afii10110
ENCODING 1118
SWIDTH 400 0
DWIDTH 8 0
BBX 7 15 0 -4
BITMAP
44
38
00
EE
44
44
28
28
28
10
10
20
20
40
80
ENDCHAR
STARTCHAR afii10193
ENCODING 1119
SWIDTH 450 0
DWIDTH 9 0
BBX 8 10 0 -2
BITMAP
E7
42
42
42
42
42
42
FF
08
08
ENDCHAR
STARTCHAR uni0460
ENCODING 1120
SWIDTH 700 0
DWIDTH 14 0
BBX 13 11 0 0
BITMAP
E738
4210
4210
2220
2220
2220
1540
1540
1540
0880
0880
ENDCHAR
STARTCHAR uni0461
ENCODING 1121
SWIDTH 500 0
DWIDTH 10 0
BBX 9 8 0 0
BITMAP
DB80
4900
4900
2A00
2A00
2A00
1400
1400
ENDCHAR
STARTCHAR uni0462
ENCODING 1122
SWIDTH 450 0
DWIDTH 9 0
BBX 9 11 -1 0
BITMAP
7000
2000
F800
A800
2000
3E00
2100
2080
2080
2100
7E00
ENDCHAR
STARTCHAR uni0463
ENCODING 1123
SWIDTH 400 0
DWIDTH 8 0
BBX 8 8 -1 0
BITMAP
70
20
F8
BE
21
21
21
7E
ENDCHAR
STARTCHAR uni0464
ENCODING 1124
SWIDTH 600 0
DWIDTH 12 0
BBX 11 11 0 0
BITMAP
E3A0
4C60
4820
5000
5080
7F80
5080
5000
4820
4C60
E380
ENDCHAR
STARTCHAR uni0465
ENCODING 1125
SWIDTH 550 0
DWIDTH 11 0
BBX 10 8 0 0
BITMAP
E740
48C0
5240
7E00
5200
5040
4880
E700
ENDCHAR
STARTCHAR uni0466
ENCODING 1126
SWIDTH 500 0
DWIDTH 10 0
BBX 9 11 0 0
BITMAP
1800
0800
1400
1400
1400
2200
2200
3600
5500
4900
EB80
ENDCHAR
STARTCHAR uni0467
ENCODING 1127
SWIDTH 400 0
DWIDTH 8 0
BBX 7 8 0 0
BITMAP
10
10
28
28
28
54
54
D6
ENDCHAR
STARTCHAR uni0468
ENCODING 1128
SWIDTH 700 0
DWIDTH 14 0
BBX 13 11 0 0
BITMAP
E180
4080
4140
4140
4140
7E20
4220
4360
4550
4490
EEB8
ENDCHAR
STARTCHAR uni0469
ENCODING 1129
SWIDTH 600 0
DWIDTH 12 0
BBX 11 8 0 0
BITMAP
E100
4100
4280
7E80
4280
4540
4540
ED60
ENDCHAR
STARTCHAR uni046A
ENCODING 1130
SWIDTH 600 0
DWIDTH 12 0
BBX 11 11 0 0
BITMAP
7FC0
2080
1100
0A00
0400
1F00
2480
4440
4440
4440
EEE0
ENDCHAR
STARTCHAR uni046B
ENCODING 1131
SWIDTH 600 0
DWIDTH 12 0
BBX 11 8 0 0
BITMAP
3F80
1100
0A00
0400
3F80
4440
4440
EEE0
ENDCHAR
STARTCHAR uni046C
ENCODING 1132
SWIDTH 800 0
DWIDTH 16 0
BBX 15 11 0 0
BITMAP
E7FC
4208
4110
40A0
4040
7FF0
4248
4444
4444
4444
EEEE
ENDCHAR
STARTCHAR uni046D
ENCODING 1133
SWIDTH 800 0
DWIDTH 16 0
BBX 15 8 0 0
BITMAP
E3F8
4110
40A0
4040
7FF8
4444
4444
EEEE
ENDCHAR
STARTCHAR uni046E
ENCODING 1134
SWIDTH 400 0
DWIDTH 8 0
BBX 7 18 0 -4
BITMAP
28
10
00
B8
C4
82
02
04
38
04
02
02
04
78
80
80
78
04
ENDCHAR
STARTCHAR uni046F
ENCODING 1135
SWIDTH 350 0
DWIDTH 7 0
BBX 6 15 0 -4
BITMAP
48
30
00
B8
C4
04
78
04
04
04
78
80
80
78
04
ENDCHAR
STARTCHAR uni0470
ENCODING 1136
SWIDTH 500 0
DWIDTH 10 0
BBX 10 11 0 0
BITMAP
9C40
4880
4900
4900
2A00
1C00
0800
0800
0800
0800
1C00
ENDCHAR
STARTCHAR uni0471
ENCODING 1137
SWIDTH 500 0
DWIDTH 10 0
BBX 10 12 0 -4
BITMAP
8840
4880
4880
4900
4900
4900
2A00
1C00
0800
0800
0800
0800
ENDCHAR
STARTCHAR uni0472
ENCODING 1138
SWIDTH 500 0
DWIDTH 10 0
BBX 9 11 0 0
BITMAP
1C00
6300
4100
8080
B080
C980
8680
8080
4100
6300
1C00
ENDCHAR
STARTCHAR uni0473
ENCODING 1139
SWIDTH 400 0
DWIDTH 8 0
BBX 7 8 0 0
BITMAP
38
44
82
B6
DA
82
44
38
ENDCHAR
STARTCHAR uni0474
ENCODING 1140
SWIDTH 500 0
DWIDTH 10 0
BBX 10 11 0 0
BITMAP
E080
4140
4100
2200
2200
2200
1400
1400
1400
0800
0800
ENDCHAR
STARTCHAR uni0475
ENCODING 1141
SWIDTH 400 0
DWIDTH 8 0
BBX 8 8 0 0
BITMAP
E2
45
44
28
28
28
10
10
ENDCHAR
STARTCHAR uni0476
ENCODING 1142
SWIDTH 500 0
DWIDTH 10 0
BBX 10 14 0 0
BITMAP
2800
1400
0000
E080
4140
4100
2200
2200
2200
1400
1400
1400
0800
0800
ENDCHAR
STARTCHAR uni0477
ENCODING 1143
SWIDTH 400 0
DWIDTH 8 0
BBX 8 11 0 0
BITMAP
50
28
00
E2
45
44
28
28
28
10
10
ENDCHAR
STARTCHAR uni0478
ENCODING 1144
SWIDTH 850 0
DWIDTH 17 0
BBX 16 15 0 -4
BITMAP
1C00
6300
4100
80F7
80A2
80A2
8094
8094
4114
6308
1C08
0010
0010
0020
0040
ENDCHAR
STARTCHAR uni0479
ENCODING 1145
SWIDTH 750 0
DWIDTH 15 0
BBX 14 12 0 -4
BITMAP
39DC
4488
8288
8250
8250
8250
4420
3820
0040
0040
0080
0100
ENDCHAR
STARTCHAR uni047A
ENCODING 1146
SWIDTH 550 0
DWIDTH 11 0
BBX 10 13 0 -1
BITMAP
0C00
1E00
6D80
4080
8040
8040
8040
8040
8040
4080
6D80
1E00
0C00
ENDCHAR
STARTCHAR uni047B
ENCODING 1147
SWIDTH 450 0
DWIDTH 9 0
BBX 8 10 0 -1
BITMAP
18
3C
5A
81
81
81
81
5A
3C
18
ENDCHAR
STARTCHAR uni047C
ENCODING 1148
SWIDTH 700 0
DWIDTH 14 0
BBX 13 14 0 0
BITMAP
0080
0F80
0800
2020
4610
4210
8008
8008
8708
8208
8208
4510
4510
38E0
ENDCHAR
STARTCHAR uni047D
ENCODING 1149
SWIDTH 600 0
DWIDTH 12 0
BBX 11 12 0 0
BITMAP
0040
7FC0
4000
0C00
2480
4040
8020
8E20
8420
8420
4A40
3180
ENDCHAR
STARTCHAR uni047E
ENCODING 1150
SWIDTH 700 0
DWIDTH 14 0
BBX 13 14 0 0
BITMAP
1FC0
1240
0000
E738
4210
4210
2220
2220
2220
1540
1540
1540
0880
0880
ENDCHAR
STARTCHAR uni047F
ENCODING 1151
SWIDTH 500 0
DWIDTH 10 0
BBX 9 11 0 0
BITMAP
7F00
4900
0000
DB80
4900
4900
2A00
2A00
2A00
1400
1400
ENDCHAR
STARTCHAR uni0480
ENCODING 1152
SWIDTH 450 0
DWIDTH 9 0
BBX 8 13 0 -2
BITMAP
1D
63
41
80
80
80
80
80
40
60
1C
04
04
ENDCHAR
STARTCHAR uni0481
ENCODING 1153
SWIDTH 400 0
DWIDTH 8 0
BBX 7 10 0 -2
BITMAP
3A
46
82
80
80
80
40
38
08
08
ENDCHAR
STARTCHAR uni2000
ENCODING 8192
SWIDTH 500 0
DWIDTH 10 0
BBX 1 1 0 0
BITMAP
00
ENDCHAR
STARTCHAR uni2001
ENCODING 8193
SWIDTH 1000 0
DWIDTH 20 0
BBX 1 1 0 0
BITMAP
00
ENDCHAR
STARTCHAR uni2002
ENCODING 8194
SWIDTH 500 0
DWIDTH 10 0
BBX 1 1 0 0
BITMAP
00
ENDCHAR
STARTCHAR uni2003
ENCODING 8195
SWIDTH 1000 0
DWIDTH 20 0
BBX 1 1 0 0
BITMAP
00
ENDCHAR
STARTCHAR uni2004
ENCODING 8196
SWIDTH 350 0
DWIDTH 7 0
BBX 1 1 0 0
BITMAP
00
ENDCHAR
STARTCHAR uni2005
ENCODING 8197
SWIDTH 250 0
DWIDTH 5 0
BBX 1 1 0 0
BITMAP
00
ENDCHAR
STARTCHAR uni2006
ENCODING 8198
SWIDTH 150 0
DWIDTH 3 0
BBX 1 1 0 0
BITMAP
00
ENDCHAR
STARTCHAR uni2007
ENCODING 8199
SWIDTH 400 0
DWIDTH 8 0
BBX 1 1 0 0
BITMAP
00
ENDCHAR
STARTCHAR uni2008
ENCODING 8200
SWIDTH 200 0
DWIDTH 4 0
BBX 1 1 0 0
BITMAP
00
ENDCHAR
STARTCHAR uni2009
ENCODING 8201
SWIDTH 150 0
DWIDTH 3 0
BBX 1 1 0 0
BITMAP
00
ENDCHAR
STARTCHAR uni200A
ENCODING 8202
SWIDTH 50 0
DWIDTH 1 0
BBX 1 1 0 0
BITMAP
00
ENDCHAR
STARTCHAR uni200B
ENCODING 8203
SWIDTH 0 0
DWIDTH 0 0
BBX 1 1 0 0
BITMAP
00
ENDCHAR
STARTCHAR uni200C
ENCODING 8204
SWIDTH 0 0
DWIDTH 0 0
BBX 1 1 0 0
BITMAP
00
ENDCHAR
STARTCHAR uni200D
ENCODING 8205
SWIDTH 0 0
DWIDTH 0 0
BBX 1 1 0 0
BITMAP
00
ENDCHAR
STARTCHAR uni200E
ENCODING 8206
SWIDTH 0 0
DWIDTH 0 0
BBX 1 1 0 0
BITMAP
00
ENDCHAR
STARTCHAR uni200F
ENCODING 8207
SWIDTH 0 0
DWIDTH 0 0
BBX 1 1 0 0
BITMAP
00
ENDCHAR
STARTCHAR uni2010
ENCODING 8208
SWIDTH 350 0
DWIDTH 7 0
BBX 6 1 0 4
BITMAP
FC
ENDCHAR
STARTCHAR uni2011
ENCODING 8209
SWIDTH 350 0
DWIDTH 7 0
BBX 6 1 0 4
BITMAP
FC
ENDCHAR
STARTCHAR uni2012
ENCODING 8210
SWIDTH 400 0
DWIDTH 8 0
BBX 7 1 0 4
BITMAP
FE
ENDCHAR
STARTCHAR endash
ENCODING 8211
SWIDTH 400 0
DWIDTH 8 0
BBX 7 1 0 4
BITMAP
FE
ENDCHAR
STARTCHAR emdash
ENCODING 8212
SWIDTH 650 0
DWIDTH 13 0
BBX 12 1 0 4
BITMAP
FFF0
ENDCHAR
STARTCHAR afii00208
ENCODING 8213
SWIDTH 650 0
DWIDTH 13 0
BBX 12 1 0 4
BITMAP
FFF0
ENDCHAR
STARTCHAR uni2016
ENCODING 8214
SWIDTH 200 0
DWIDTH 4 0
BBX 3 15 0 -3
BITMAP
A0
A0
A0
A0
A0
A0
A0
A0
A0
A0
A0
A0
A0
A0
A0
ENDCHAR
STARTCHAR underscoredbl
ENCODING 8215
SWIDTH 400 0
DWIDTH 8 0
BBX 7 3 0 -3
BITMAP
FE
00
FE
ENDCHAR
STARTCHAR quoteleft
ENCODING 8216
SWIDTH 150 0
DWIDTH 3 0
BBX 2 4 0 8
BITMAP
40
80
C0
C0
ENDCHAR
STARTCHAR quoteright
ENCODING 8217
SWIDTH 150 0
DWIDTH 3 0
BBX 2 4 0 8
BITMAP
C0
C0
40
80
ENDCHAR
STARTCHAR quotesinglbase
ENCODING 8218
SWIDTH 150 0
DWIDTH 3 0
BBX 2 4 0 -2
BITMAP
C0
C0
40
80
ENDCHAR
STARTCHAR quotereversed
ENCODING 8219
SWIDTH 150 0
DWIDTH 3 0
BBX 2 4 0 8
BITMAP
C0
C0
80
40
ENDCHAR
STARTCHAR quotedblleft
ENCODING 8220
SWIDTH 300 0
DWIDTH 6 0
BBX 5 4 0 8
BITMAP
48
90
D8
D8
ENDCHAR
STARTCHAR quotedblright
ENCODING 8221
SWIDTH 300 0
DWIDTH 6 0
BBX 5 4 0 8
BITMAP
D8
D8
48
90
ENDCHAR
STARTCHAR quotedblbase
ENCODING 8222
SWIDTH 300 0
DWIDTH 6 0
BBX 5 4 0 -2
BITMAP
D8
D8
48
90
ENDCHAR
STARTCHAR uni201F
ENCODING 8223
SWIDTH 300 0
DWIDTH 6 0
BBX 5 4 0 8
BITMAP
D8
D8
90
48
ENDCHAR
STARTCHAR dagger
ENCODING 8224
SWIDTH 300 0
DWIDTH 6 0
BBX 5 7 0 5
BITMAP
20
20
F8
20
20
20
20
ENDCHAR
STARTCHAR daggerdbl
ENCODING 8225
SWIDTH 300 0
DWIDTH 6 0
BBX 5 8 0 4
BITMAP
20
20
F8
20
20
F8
20
20
ENDCHAR
STARTCHAR bullet
ENCODING 8226
SWIDTH 300 0
DWIDTH 6 0
BBX 5 5 0 3
BITMAP
70
F8
F8
F8
70
ENDCHAR
STARTCHAR uni2023
ENCODING 8227
SWIDTH 300 0
DWIDTH 6 0
BBX 5 5 0 3
BITMAP
80
E0
F8
E0
80
ENDCHAR
STARTCHAR uni2024
ENCODING 8228
SWIDTH 200 0
DWIDTH 4 0
BBX 1 2 1 0
BITMAP
80
80
ENDCHAR
STARTCHAR uni2025
ENCODING 8229
SWIDTH 350 0
DWIDTH 7 0
BBX 4 2 1 0
BITMAP
90
90
ENDCHAR
STARTCHAR ellipsis
ENCODING 8230
SWIDTH 500 0
DWIDTH 10 0
BBX 7 2 1 0
BITMAP
92
92
ENDCHAR
STARTCHAR uni2027
ENCODING 8231
SWIDTH 100 0
DWIDTH 2 0
BBX 1 2 0 5
BITMAP
80
80
ENDCHAR
STARTCHAR perthousand
ENCODING 8240
SWIDTH 650 0
DWIDTH 13 0
BBX 12 11 0 0
BITMAP
6E00
9200
9400
9400
6800
0800
0B60
1490
1490
2490
2360
ENDCHAR
STARTCHAR uni2031
ENCODING 8241
SWIDTH 800 0
DWIDTH 16 0
BBX 15 11 0 0
BITMAP
6E00
9200
9400
9400
6800
0800
0B6C
1492
1492
2492
236C
ENDCHAR
STARTCHAR guilsinglleft
ENCODING 8249
SWIDTH 250 0
DWIDTH 5 0
BBX 4 7 0 1
BITMAP
10
20
40
80
40
20
10
ENDCHAR
STARTCHAR guilsinglright
ENCODING 8250
SWIDTH 250 0
DWIDTH 5 0
BBX 4 7 0 1
BITMAP
80
40
20
10
20
40
80
ENDCHAR
STARTCHAR exclamdbl
ENCODING 8252
SWIDTH 200 0
DWIDTH 4 0
BBX 3 11 0 0
BITMAP
A0
A0
A0
A0
A0
A0
A0
A0
00
A0
A0
ENDCHAR
STARTCHAR uni203D
ENCODING 8253
SWIDTH 400 0
DWIDTH 8 0
BBX 7 12 0 0
BITMAP
10
38
54
92
12
14
18
10
10
00
10
10
ENDCHAR
STARTCHAR fraction
ENCODING 8260
SWIDTH 200 0
DWIDTH 4 0
BBX 11 11 -4 0
BITMAP
0020
0040
0080
0100
0200
0400
0800
1000
2000
4000
8000
ENDCHAR
STARTCHAR uni2047
ENCODING 8263
SWIDTH 800 0
DWIDTH 16 0
BBX 15 11 0 0
BITMAP
3838
4444
8282
0202
0404
0808
1010
1010
0000
1010
1010
ENDCHAR
STARTCHAR uni2048
ENCODING 8264
SWIDTH 500 0
DWIDTH 10 0
BBX 9 11 0 0
BITMAP
3880
4480
8280
0280
0480
0880
1080
1080
0000
1080
1080
ENDCHAR
STARTCHAR uni2049
ENCODING 8265
SWIDTH 500 0
DWIDTH 10 0
BBX 9 11 0 0
BITMAP
8E00
9100
A080
8080
8100
8200
8400
8400
0000
8400
8400
ENDCHAR
STARTCHAR Euro
ENCODING 8364
SWIDTH 550 0
DWIDTH 11 0
BBX 10 11 0 0
BITMAP
0740
18C0
1040
2000
F800
2000
F800
2000
1040
18C0
0700
ENDCHAR
STARTCHAR uni2117
ENCODING 8471
SWIDTH 600 0
DWIDTH 12 0
BBX 11 11 0 0
BITMAP
0E00
3180
4040
5E40
9120
9E20
9020
5040
4040
3180
0E00
ENDCHAR
STARTCHAR uni2120
ENCODING 8480
SWIDTH 500 0
DWIDTH 10 0
BBX 9 4 0 8
BITMAP
6880
CD80
2A80
C880
ENDCHAR
STARTCHAR trademark
ENCODING 8482
SWIDTH 500 0
DWIDTH 10 0
BBX 9 4 0 8
BITMAP
E880
4D80
4A80
4880
ENDCHAR
STARTCHAR Omega
ENCODING 8486
SWIDTH 550 0
DWIDTH 11 0
BBX 10 11 0 0
BITMAP
1E00
6180
4080
8040
8040
8040
4080
6180
1200
9240
F3C0
ENDCHAR
STARTCHAR uni2127
ENCODING 8487
SWIDTH 550 0
DWIDTH 11 0
BBX 10 11 0 0
BITMAP
F3C0
9240
1200
6180
4080
8040
8040
8040
4080
6180
1E00
ENDCHAR
STARTCHAR uni21E7
ENCODING 8679
SWIDTH 500 0
DWIDTH 10 0
BBX 9 11 0 0
BITMAP
0800
1400
2200
4100
E380
2200
2200
2200
2200
2200
3E00
ENDCHAR
STARTCHAR uni2200
ENCODING 8704
SWIDTH 500 0
DWIDTH 10 0
BBX 9 11 0 0
BITMAP
E380
4100
4100
2200
3E00
2200
1400
1400
1400
0800
1800
ENDCHAR
STARTCHAR uni2201
ENCODING 8705
SWIDTH 350 0
DWIDTH 7 0
BBX 6 11 0 0
BITMAP
34
4C
44
80
80
80
80
80
40
44
38
ENDCHAR
STARTCHAR partialdiff
ENCODING 8706
SWIDTH 400 0
DWIDTH 8 0
BBX 7 12 0 0
BITMAP
30
08
04
02
1A
26
42
82
82
84
48
30
ENDCHAR
STARTCHAR uni2203
ENCODING 8707
SWIDTH 450 0
DWIDTH 9 0
BBX 8 11 0 0
BITMAP
FF
82
02
02
22
3E
22
02
02
82
FF
ENDCHAR
STARTCHAR uni2204
ENCODING 8708
SWIDTH 450 0
DWIDTH 9 0
BBX 8 15 0 -2
BITMAP
04
04
FF
8A
0A
0A
32
3E
32
22
22
A2
FF
40
40
ENDCHAR
STARTCHAR uni2205
ENCODING 8709
SWIDTH 600 0
DWIDTH 12 0
BBX 11 11 0 0
BITMAP
1F20
20C0
40C0
8120
8220
8420
8820
9020
6040
6080
9F00
ENDCHAR
STARTCHAR Delta
ENCODING 8710
SWIDTH 500 0
DWIDTH 10 0
BBX 9 11 0 0
BITMAP
0800
0800
0800
1400
1400
2200
2200
4100
4100
8080
FF80
ENDCHAR
STARTCHAR uni2207
ENCODING 8711
SWIDTH 500 0
DWIDTH 10 0
BBX 9 11 0 0
BITMAP
FF80
8080
4100
4100
2200
2200
1400
1400
0800
0800
0800
ENDCHAR
STARTCHAR uni2208
ENCODING 8712
SWIDTH 400 0
DWIDTH 8 0
BBX 7 11 0 0
BITMAP
1E
20
40
80
80
FE
80
80
40
20
1E
ENDCHAR
STARTCHAR uni2209
ENCODING 8713
SWIDTH 400 0
DWIDTH 8 0
BBX 7 15 0 -2
BITMAP
04
04
1E
28
48
88
90
FE
90
A0
60
20
5E
40
40
ENDCHAR
STARTCHAR uni220A
ENCODING 8714
SWIDTH 300 0
DWIDTH 6 0
BBX 5 8 0 0
BITMAP
38
40
80
F8
80
80
40
38
ENDCHAR
STARTCHAR uni220B
ENCODING 8715
SWIDTH 400 0
DWIDTH 8 0
BBX 7 11 0 0
BITMAP
F0
08
04
02
02
FE
02
02
04
08
F0
ENDCHAR
STARTCHAR uni220C
ENCODING 8716
SWIDTH 400 0
DWIDTH 8 0
BBX 7 15 0 -2
BITMAP
04
04
F4
08
0C
0A
12
FE
12
22
24
28
F0
40
40
ENDCHAR
STARTCHAR uni220D
ENCODING 8717
SWIDTH 300 0
DWIDTH 6 0
BBX 5 8 0 0
BITMAP
E0
10
08
F8
08
08
10
E0
ENDCHAR
STARTCHAR product
ENCODING 8719
SWIDTH 550 0
DWIDTH 11 0
BBX 10 15 0 -3
BITMAP
FFC0
4080
4080
4080
4080
4080
4080
4080
4080
4080
4080
4080
4080
4080
E1C0
ENDCHAR
STARTCHAR uni2210
ENCODING 8720
SWIDTH 550 0
DWIDTH 11 0
BBX 10 15 0 -3
BITMAP
E1C0
4080
4080
4080
4080
4080
4080
4080
4080
4080
4080
4080
4080
4080
FFC0
ENDCHAR
STARTCHAR summation
ENCODING 8721
SWIDTH 550 0
DWIDTH 11 0
BBX 10 15 0 -3
BITMAP
FFC0
4040
4000
2000
2000
1000
1000
0800
1000
1000
2000
2000
4000
4040
FFC0
ENDCHAR
STARTCHAR radical
ENCODING 8730
SWIDTH 500 0
DWIDTH 10 0
BBX 9 12 0 0
BITMAP
0080
0080
0100
0100
0200
0200
C400
4400
2800
2800
1000
1000
ENDCHAR
STARTCHAR uni221B
ENCODING 8731
SWIDTH 500 0
DWIDTH 10 0
BBX 9 13 0 0
BITMAP
7000
8880
3080
0900
8900
7200
0200
C400
4400
2800
2800
1000
1000
ENDCHAR
STARTCHAR uni221C
ENCODING 8732
SWIDTH 500 0
DWIDTH 10 0
BBX 9 13 0 0
BITMAP
1000
3080
5080
F900
1100
1200
0200
C400
4400
2800
2800
1000
1000
ENDCHAR
STARTCHAR uni221D
ENCODING 8733
SWIDTH 450 0
DWIDTH 9 0
BBX 8 5 0 3
BITMAP
63
94
88
94
63
ENDCHAR
STARTCHAR infinity
ENCODING 8734
SWIDTH 500 0
DWIDTH 10 0
BBX 9 5 0 3
BITMAP
6300
9480
8880
9480
6300
ENDCHAR
STARTCHAR integral
ENCODING 8747
SWIDTH 300 0
DWIDTH 6 0
BBX 7 15 -1 -3
BITMAP
0C
12
10
10
10
10
10
10
10
10
10
10
10
90
60
ENDCHAR
STARTCHAR uni222C
ENCODING 8748
SWIDTH 550 0
DWIDTH 11 0
BBX 12 15 -1 -3
BITMAP
0C60
1290
1080
1080
1080
1080
1080
1080
1080
1080
1080
1080
1080
9480
6300
ENDCHAR
STARTCHAR uni222D
ENCODING 8749
SWIDTH 800 0
DWIDTH 16 0
BBX 17 15 -1 -3
BITMAP
0C6300
129480
108400
108400
108400
108400
108400
108400
108400
108400
108400
108400
108400
94A400
631800
ENDCHAR
STARTCHAR approxequal
ENCODING 8776
SWIDTH 350 0
DWIDTH 7 0
BBX 6 5 0 2
BITMAP
64
98
00
64
98
ENDCHAR
STARTCHAR uni2249
ENCODING 8777
SWIDTH 350 0
DWIDTH 7 0
BBX 6 11 0 -1
BITMAP
08
08
10
74
98
20
64
B8
20
40
40
ENDCHAR
STARTCHAR notequal
ENCODING 8800
SWIDTH 400 0
DWIDTH 8 0
BBX 7 7 0 1
BITMAP
08
08
FE
10
FE
20
20
ENDCHAR
STARTCHAR equivalence
ENCODING 8801
SWIDTH 350 0
DWIDTH 7 0
BBX 6 5 0 2
BITMAP
FC
00
FC
00
FC
ENDCHAR
STARTCHAR uni2262
ENCODING 8802
SWIDTH 350 0
DWIDTH 7 0
BBX 6 9 0 0
BITMAP
08
08
FC
10
FC
20
FC
40
40
ENDCHAR
STARTCHAR uni2263
ENCODING 8803
SWIDTH 350 0
DWIDTH 7 0
BBX 6 7 0 1
BITMAP
FC
00
FC
00
FC
00
FC
ENDCHAR
STARTCHAR lessequal
ENCODING 8804
SWIDTH 250 0
DWIDTH 5 0
BBX 4 9 0 0
BITMAP
10
20
40
80
40
20
10
00
F0
ENDCHAR
STARTCHAR greaterequal
ENCODING 8805
SWIDTH 250 0
DWIDTH 5 0
BBX 4 9 0 0
BITMAP
80
40
20
10
20
40
80
00
F0
ENDCHAR
STARTCHAR uni2303
ENCODING 8963
SWIDTH 400 0
DWIDTH 8 0
BBX 7 4 0 7
BITMAP
10
28
44
82
ENDCHAR
STARTCHAR uni2318
ENCODING 8984
SWIDTH 600 0
DWIDTH 12 0
BBX 11 11 0 0
BITMAP
60C0
9120
9120
7FC0
1100
1100
1100
7FC0
9120
9120
60C0
ENDCHAR
STARTCHAR uni2325
ENCODING 8997
SWIDTH 650 0
DWIDTH 13 0
BBX 12 11 0 0
BITMAP
F0F0
1000
0800
0800
0400
0400
0200
0200
0100
0100
00F0
ENDCHAR
STARTCHAR lozenge
ENCODING 9674
SWIDTH 300 0
DWIDTH 6 0
BBX 5 9 0 1
BITMAP
20
20
50
50
88
50
50
20
20
ENDCHAR
STARTCHAR uni2661
ENCODING 9825
SWIDTH 700 0
DWIDTH 14 0
BBX 13 11 0 0
BITMAP
38E0
4510
8208
8008
8008
4010
2020
1040
0880
0500
0200
ENDCHAR
STARTCHAR heart
ENCODING 9829
SWIDTH 700 0
DWIDTH 14 0
BBX 13 11 0 0
BITMAP
38E0
7DF0
FFF8
FFF8
FFF8
7FF0
3FE0
1FC0
0F80
0700
0200
ENDCHAR
STARTCHAR uniF600
ENCODING 62976
SWIDTH 1100 0
DWIDTH 22 0
BBX 23 12 0 0
BITMAP
000002
00040C
380010
440810
408A10
314B10
4192A0
8292A0
825460
884420
542400
381000
ENDCHAR
STARTCHAR uniF601
ENCODING 62977
SWIDTH 1350 0
DWIDTH 27 0
BBX 26 13 0 -2
BITMAP
03003000
0CC0CC00
30330300
C00C00C0
30330300
0CC0CC00
03003000
0CC0CC00
30330300
C00C00C0
30330300
0CC0CC00
03003000
ENDCHAR
STARTCHAR uniF602
ENCODING 62978
SWIDTH 750 0
DWIDTH 15 0
BBX 14 14 0 -2
BITMAP
0300
0CC0
3030
C00C
B034
8CC4
8304
8104
8104
8104
C10C
3130
0DC0
0300
ENDCHAR
STARTCHAR uniF603
ENCODING 62979
SWIDTH 950 0
DWIDTH 19 0
BBX 18 15 0 -2
BITMAP
00C000
033000
0C0C00
0B3400
08C400
084400
0C4C00
337300
C0C0C0
B37340
8C4C40
844440
C4C4C0
373700
0C0C00
ENDCHAR
STARTCHAR uniF604
ENCODING 62980
SWIDTH 750 0
DWIDTH 15 0
BBX 14 14 0 -2
BITMAP
0300
0DC0
3AB0
D55C
BABC
DDD4
ABAC
D554
ABAC
D554
EBAC
3570
0FC0
0300
ENDCHAR
STARTCHAR uniF605
ENCODING 62981
SWIDTH 750 0
DWIDTH 15 0
BBX 12 12 1 -1
BITMAP
0600
1F80
7FE0
9F90
E670
F9F0
FDF0
FDF0
FDF0
7DE0
1D80
0400
ENDCHAR
STARTCHAR uniF606
ENCODING 62982
SWIDTH 800 0
DWIDTH 16 0
BBX 15 14 0 -2
BITMAP
0100
0380
0540
0100
0100
0100
0100
0100
0100
0100
06C0
9832
E00E
F01E
ENDCHAR
STARTCHAR uniF607
ENCODING 62983
SWIDTH 850 0
DWIDTH 17 0
BBX 16 15 0 -3
BITMAP
1200
2D00
2100
4A02
8203
8105
71F9
18F1
1802
1802
11E2
1212
1212
2222
3C3C
ENDCHAR
STARTCHAR uniF608
ENCODING 62984
SWIDTH 1200 0
DWIDTH 24 0
BBX 24 20 0 -6
BITMAP
AB77BF
AB77BF
AB77BF
AB77BF
AB77BF
AB77BF
AB77BF
AB77BF
AB77BF
AB77BF
AB77BF
AB77BF
AB77BF
AB77BF
AB77BF
AB77BF
AB77BF
AB77BF
AB77BF
AB77BF
ENDCHAR
STARTCHAR uniF609
ENCODING 62985
SWIDTH 1200 0
DWIDTH 24 0
BBX 24 20 0 -6
BITMAP
FDEED5
FDEED5
FDEED5
FDEED5
FDEED5
FDEED5
FDEED5
FDEED5
FDEED5
FDEED5
FDEED5
FDEED5
FDEED5
FDEED5
FDEED5
FDEED5
FDEED5
FDEED5
FDEED5
FDEED5
ENDCHAR
STARTCHAR uniF60A
ENCODING 62986
SWIDTH 800 0
DWIDTH 16 0
BBX 16 20 0 -6
BITMAP
803F
9B3F
A4BF
AABF
953F
AABF
A4BF
AABF
953F
AABF
A4BF
AABF
953F
AABF
A4BF
AABF
953F
AABF
A4BF
9B3F
ENDCHAR
STARTCHAR uniF60B
ENCODING 62987
SWIDTH 800 0
DWIDTH 16 0
BBX 16 20 0 -6
BITMAP
FC01
FCD9
FD25
FD55
FCA9
FD55
FD25
FD55
FCA9
FD55
FD25
FD55
FCA9
FD55
FD25
FD55
FCA9
FD55
FD25
FCD9
ENDCHAR
STARTCHAR uniF60C
ENCODING 62988
SWIDTH 1200 0
DWIDTH 24 0
BBX 17 20 1 -6
BITMAP
A91080
A91080
A91080
A91080
A91080
A91080
A91080
A91080
A91080
A91080
A91080
A91080
A91080
A91080
A91080
A91080
A91080
A91080
A91080
A91080
ENDCHAR
STARTCHAR uniF60D
ENCODING 62989
SWIDTH 1200 0
DWIDTH 24 0
BBX 17 20 6 -6
BITMAP
844A80
844A80
844A80
844A80
844A80
844A80
844A80
844A80
844A80
844A80
844A80
844A80
844A80
844A80
844A80
844A80
844A80
844A80
844A80
844A80
ENDCHAR
STARTCHAR uniF60E
ENCODING 62990
SWIDTH 800 0
DWIDTH 16 0
BBX 9 20 1 -6
BITMAP
FF80
C980
B680
AA80
D580
AA80
B680
AA80
D580
AA80
B680
AA80
D580
AA80
B680
AA80
D580
AA80
B680
C980
ENDCHAR
STARTCHAR uniF60F
ENCODING 62991
SWIDTH 800 0
DWIDTH 16 0
BBX 9 20 6 -6
BITMAP
FF80
C980
B680
AA80
D580
AA80
B680
AA80
D580
AA80
B680
AA80
D580
AA80
B680
AA80
D580
AA80
B680
C980
ENDCHAR
STARTCHAR uniF610
ENCODING 62992
SWIDTH 800 0
DWIDTH 16 0
BBX 15 11 0 0
BITMAP
FEFE
9292
1010
1010
1010
1010
1010
1010
1010
1010
3838
ENDCHAR
STARTCHAR uniF611
ENCODING 62993
SWIDTH 400 0
DWIDTH 8 0
BBX 8 12 0 0
BITMAP
44
44
44
44
FE
44
44
44
44
44
44
33
ENDCHAR
STARTCHAR uniF700
ENCODING 63232
SWIDTH 450 0
DWIDTH 9 0
BBX 8 14 0 0
BITMAP
32
4C
00
E7
42
44
48
50
68
44
44
42
42
E7
ENDCHAR
STARTCHAR uniF701
ENCODING 63233
SWIDTH 450 0
DWIDTH 9 0
BBX 8 14 0 0
BITMAP
32
4C
00
C0
40
40
4E
44
48
50
68
44
42
E7
ENDCHAR
STARTCHAR uniF702
ENCODING 63234
SWIDTH 750 0
DWIDTH 15 0
BBX 14 11 0 0
BITMAP
E380
4100
4100
4100
4100
4100
4100
4100
4100
4104
FFFC
ENDCHAR
STARTCHAR uniF703
ENCODING 63235
SWIDTH 350 0
DWIDTH 7 0
BBX 6 12 0 0
BITMAP
D8
48
48
48
48
48
48
48
48
48
48
FC
ENDCHAR
STARTCHAR uniF704
ENCODING 63236
SWIDTH 600 0
DWIDTH 12 0
BBX 11 14 0 0
BITMAP
1C80
2700
0000
C060
60C0
5140
4A40
4440
4440
4040
4040
4040
4040
E0E0
ENDCHAR
STARTCHAR uniF705
ENCODING 63237
SWIDTH 700 0
DWIDTH 14 0
BBX 13 11 0 0
BITMAP
1C40
2380
0000
D8C0
6520
4210
4210
4210
4210
4210
E738
ENDCHAR
STARTCHAR uniF706
ENCODING 63238
SWIDTH 900 0
DWIDTH 18 0
BBX 17 11 0 0
BITMAP
1DE380
634100
414100
804100
804100
807F00
804100
804100
414100
634100
1CE380
ENDCHAR
STARTCHAR uniF707
ENCODING 63239
SWIDTH 800 0
DWIDTH 16 0
BBX 15 12 0 0
BITMAP
0180
0080
0080
0080
3AB0
46C8
8284
8084
8084
8284
4484
39CE
ENDCHAR
STARTCHAR uniF708
ENCODING 63240
SWIDTH 850 0
DWIDTH 17 0
BBX 16 11 0 0
BITMAP
3BC7
4682
8282
8082
4082
38FE
0482
0282
8282
C482
B9C7
ENDCHAR
STARTCHAR uniF709
ENCODING 63241
SWIDTH 750 0
DWIDTH 15 0
BBX 14 12 0 0
BITMAP
0300
0100
0100
0100
7560
8D90
8508
6108
1908
8508
C508
BB9C
ENDCHAR
STARTCHAR uniF70A
ENCODING 63242
SWIDTH 850 0
DWIDTH 17 0
BBX 16 11 0 0
BITMAP
FFC7
9282
1082
1082
1082
10FE
1082
1082
1082
1082
39C7
ENDCHAR
STARTCHAR uniF70B
ENCODING 63243
SWIDTH 650 0
DWIDTH 13 0
BBX 12 12 0 0
BITMAP
4C00
4400
4400
4400
E580
4640
4420
4420
4420
4420
4420
3E70
ENDCHAR
STARTCHAR uniF70C
ENCODING 63244
SWIDTH 500 0
DWIDTH 10 0
BBX 9 11 0 0
BITMAP
E300
4100
4100
4100
4100
4100
4100
4100
4100
4100
FF80
ENDCHAR
STARTCHAR uniF70D
ENCODING 63245
SWIDTH 850 0
DWIDTH 17 0
BBX 16 11 0 0
BITMAP
1DC0
6340
4140
8058
8064
8042
8042
8042
4142
6342
1CE7
ENDCHAR
STARTCHAR uniF70E
ENCODING 63246
SWIDTH 800 0
DWIDTH 16 0
BBX 15 11 0 0
BITMAP
3B80
4680
8280
80B0
40C8
3884
0484
0284
8284
C484
B9CE
ENDCHAR
STARTCHAR uniF70F
ENCODING 63247
SWIDTH 800 0
DWIDTH 16 0
BBX 15 11 0 0
BITMAP
FF80
9280
1080
10B0
10C8
1084
1084
1084
1084
1084
39CE
ENDCHAR
STARTCHAR uniF710
ENCODING 63248
SWIDTH 1000 0
DWIDTH 20 0
BBX 19 11 0 0
BITMAP
2100E0
210100
220200
249900
48A480
714480
494840
853040
840040
820080
818F00
ENDCHAR
STARTCHAR uniF711
ENCODING 63249
SWIDTH 500 0
DWIDTH 10 0
BBX 9 11 0 0
BITMAP
9000
A000
C000
A000
9000
0000
0480
0500
0600
0500
0480
ENDCHAR
STARTCHAR uniF712
ENCODING 63250
SWIDTH 750 0
DWIDTH 15 0
BBX 14 11 0 0
BITMAP
9000
A000
C000
A780
9400
0700
041C
07A0
0018
0004
0038
ENDCHAR
STARTCHAR uniF713
ENCODING 63251
SWIDTH 500 0
DWIDTH 10 0
BBX 9 11 0 0
BITMAP
9000
A000
C000
A000
9000
0000
0380
0400
0300
0080
0700
ENDCHAR
STARTCHAR uniF714
ENCODING 63252
SWIDTH 550 0
DWIDTH 11 0
BBX 10 11 0 0
BITMAP
7000
8000
B000
9300
7400
0400
05C0
1880
0080
0080
01C0
ENDCHAR
STARTCHAR uniF715
ENCODING 63253
SWIDTH 600 0
DWIDTH 12 0
BBX 7 7 2 2
BITMAP
AA
54
AA
54
AA
54
AA
ENDCHAR
STARTCHAR uniF71C
ENCODING 63260
SWIDTH 450 0
DWIDTH 9 0
BBX 14 13 -6 -5
BITMAP
00EC
0118
0208
0208
0208
0208
0118
00E8
0008
0010
0060
7F80
8000
ENDCHAR
STARTCHAR uniF71D
ENCODING 63261
SWIDTH 150 0
DWIDTH 3 0
BBX 12 17 -10 -5
BITMAP
0010
0010
0000
0000
0030
0010
0010
0010
0010
0010
0010
0010
0010
0020
00C0
7F00
8000
ENDCHAR
STARTCHAR uniF71E
ENCODING 63262
SWIDTH 350 0
DWIDTH 7 0
BBX 14 11 -8 -3
BITMAP
0074
008C
0084
0060
0018
0004
0004
0008
0030
7FC0
8000
ENDCHAR
STARTCHAR uniF71F
ENCODING 63263
SWIDTH 400 0
DWIDTH 8 0
BBX 16 13 -9 -5
BITMAP
0077
0022
0022
0014
0014
0014
0008
0008
0010
0020
00C0
7F00
8000
ENDCHAR
STARTCHAR uniFB00
ENCODING 64256
SWIDTH 400 0
DWIDTH 8 0
BBX 9 12 0 0
BITMAP
1980
2200
4400
4400
FE00
4400
4400
4400
4400
4400
4400
EE00
ENDCHAR
STARTCHAR fi
ENCODING 64257
SWIDTH 400 0
DWIDTH 8 0
BBX 7 12 0 0
BITMAP
18
20
40
40
FC
44
44
44
44
44
44
EE
ENDCHAR
STARTCHAR fl
ENCODING 64258
SWIDTH 400 0
DWIDTH 8 0
BBX 7 12 0 0
BITMAP
1C
24
44
44
E4
44
44
44
44
44
44
EE
ENDCHAR
STARTCHAR uniFB03
ENCODING 64259
SWIDTH 600 0
DWIDTH 12 0
BBX 11 12 0 0
BITMAP
1980
2200
4400
4400
FFC0
4440
4440
4440
4440
4440
4440
EEE0
ENDCHAR
STARTCHAR uniFB04
ENCODING 64260
SWIDTH 600 0
DWIDTH 12 0
BBX 11 12 0 0
BITMAP
19C0
2240
4440
4440
FE40
4440
4440
4440
4440
4440
4440
EEE0
ENDCHAR
STARTCHAR uniFB05
ENCODING 64261
SWIDTH 400 0
DWIDTH 8 0
BBX 8 12 0 0
BITMAP
1C
24
44
44
CE
44
44
44
44
44
44
E3
ENDCHAR
STARTCHAR uniFB06
ENCODING 64262
SWIDTH 550 0
DWIDTH 11 0
BBX 11 12 0 0
BITMAP
0080
0680
0980
0880
75C0
8C80
8480
6080
1880
8480
C480
B860
ENDCHAR
STARTCHAR uniFB07
ENCODING 64263
SWIDTH 600 0
DWIDTH 12 0
BBX 12 12 0 0
BITMAP
0040
0340
04C0
0440
3AE0
4640
8240
8040
8040
8240
4440
3830
ENDCHAR
STARTCHAR .notdef
ENCODING -1
SWIDTH 0 0
DWIDTH 0 0
BBX 1 1 0 0
BITMAP
00
ENDCHAR
STARTCHAR .null
ENCODING -1
SWIDTH 0 0
DWIDTH 0 0
BBX 1 1 0 0
BITMAP
00
ENDCHAR
STARTCHAR nonmarkingreturn
ENCODING -1
SWIDTH 0 0
DWIDTH 0 0
BBX 1 1 0 0
BITMAP
00
ENDCHAR
ENDFONT
